<?xml version="1.0" encoding="UTF-8" standalone="no"?>
<!-- Created with Inkscape (http://www.inkscape.org/) -->

<svg
   version="1.1"
   id="svg1"
   width="524"
   height="176"
   viewBox="0 0 524 176"
   sodipodi:docname="ConterfactualGAN.svg"
   inkscape:version="1.3.2 (091e20ef0f, 2023-11-25, custom)"
   xmlns:inkscape="http://www.inkscape.org/namespaces/inkscape"
   xmlns:sodipodi="http://sodipodi.sourceforge.net/DTD/sodipodi-0.dtd"
   xmlns="http://www.w3.org/2000/svg"
   xmlns:svg="http://www.w3.org/2000/svg">
  <defs
     id="defs1">
    <clipPath
       clipPathUnits="userSpaceOnUse"
       id="clipPath1">
      <path
         d="M 0,0 H 2093.15 V 1832.19 H 0 Z"
         transform="translate(-866.02402,-915.40802)"
         id="path1" />
    </clipPath>
    <clipPath
       clipPathUnits="userSpaceOnUse"
       id="clipPath2">
      <path
         d="M 0,0 H 2093.15 V 1832.19 H 0 Z"
         transform="matrix(1,0,0,-1,-862.36002,912.75402)"
         id="path2" />
    </clipPath>
    <clipPath
       clipPathUnits="userSpaceOnUse"
       id="clipPath3">
      <path
         d="M 0,0 H 2093.15 V 1832.19 H 0 Z"
         transform="translate(-866.02402,-915.40802)"
         id="path3" />
    </clipPath>
    <clipPath
       clipPathUnits="userSpaceOnUse"
       id="clipPath4">
      <path
         d="M 0,0 H 2093.15 V 1832.19 H 0 Z"
         transform="matrix(1,0,0,-1,-921.15302,911.32602)"
         id="path4" />
    </clipPath>
    <clipPath
       clipPathUnits="userSpaceOnUse"
       id="clipPath5">
      <path
         d="M 0,0 H 2093.15 V 1832.19 H 0 Z"
         transform="translate(-866.02402,-915.40802)"
         id="path5" />
    </clipPath>
    <clipPath
       clipPathUnits="userSpaceOnUse"
       id="clipPath6">
      <path
         d="M 0,0 H 2093.15 V 1832.19 H 0 Z"
         transform="matrix(1,0,0,-1,-997.66602,911.21702)"
         id="path6" />
    </clipPath>
    <clipPath
       clipPathUnits="userSpaceOnUse"
       id="clipPath7">
      <path
         d="M 0,0 H 2093.15 V 1832.19 H 0 Z"
         transform="translate(-866.02402,-915.40802)"
         id="path7" />
    </clipPath>
    <clipPath
       clipPathUnits="userSpaceOnUse"
       id="clipPath8">
      <path
         d="M 0,0 H 2093.15 V 1832.19 H 0 Z"
         transform="translate(-866.02402,-915.40802)"
         id="path8" />
    </clipPath>
    <clipPath
       clipPathUnits="userSpaceOnUse"
       id="clipPath9">
      <path
         d="M 0,0 H 2093.15 V 1832.19 H 0 Z"
         transform="translate(-866.02402,-915.40802)"
         id="path9" />
    </clipPath>
    <clipPath
       clipPathUnits="userSpaceOnUse"
       id="clipPath10">
      <path
         d="M 0,0 H 2093.15 V 1832.19 H 0 Z"
         transform="translate(-866.02402,-915.40802)"
         id="path10" />
    </clipPath>
    <clipPath
       clipPathUnits="userSpaceOnUse"
       id="clipPath11">
      <path
         d="M 0,0 H 2093.15 V 1832.19 H 0 Z"
         transform="matrix(1,0,0,-1,-1074.14,910.27302)"
         id="path11" />
    </clipPath>
    <clipPath
       clipPathUnits="userSpaceOnUse"
       id="clipPath12">
      <path
         d="M 0,0 H 2093.15 V 1832.19 H 0 Z"
         transform="matrix(1,0,0,-1,-1080.979,914.61302)"
         id="path12" />
    </clipPath>
    <clipPath
       clipPathUnits="userSpaceOnUse"
       id="clipPath13">
      <path
         d="M 0,0 H 2093.15 V 1832.19 H 0 Z"
         transform="translate(-866.02402,-915.40802)"
         id="path13" />
    </clipPath>
    <clipPath
       clipPathUnits="userSpaceOnUse"
       id="clipPath14">
      <path
         d="M 0,0 H 2093.15 V 1832.19 H 0 Z"
         transform="matrix(1,0,0,-1,-1136.424,911.32602)"
         id="path14" />
    </clipPath>
    <clipPath
       clipPathUnits="userSpaceOnUse"
       id="clipPath15">
      <path
         d="M 0,0 H 2093.15 V 1832.19 H 0 Z"
         transform="matrix(1,0,0,-1,-1183.359,912.24602)"
         id="path15" />
    </clipPath>
    <clipPath
       clipPathUnits="userSpaceOnUse"
       id="clipPath16">
      <path
         d="M 0,0 H 2093.15 V 1832.19 H 0 Z"
         transform="matrix(1,0,0,-1,-1176.5685,912.24602)"
         id="path16" />
    </clipPath>
    <clipPath
       clipPathUnits="userSpaceOnUse"
       id="clipPath17">
      <path
         d="M 0,0 H 2093.15 V 1832.19 H 0 Z"
         transform="matrix(1,0,0,-1,-1226.476,911.43402)"
         id="path17" />
    </clipPath>
    <clipPath
       clipPathUnits="userSpaceOnUse"
       id="clipPath18">
      <path
         d="M 0,0 H 2093.15 V 1832.19 H 0 Z"
         transform="matrix(1,0,0,-1,-1232.669,915.77402)"
         id="path18" />
    </clipPath>
    <clipPath
       clipPathUnits="userSpaceOnUse"
       id="clipPath19">
      <path
         d="M 0,0 H 2093.15 V 1832.19 H 0 Z"
         transform="translate(-866.02402,-915.40802)"
         id="path19" />
    </clipPath>
    <clipPath
       clipPathUnits="userSpaceOnUse"
       id="clipPath20">
      <path
         d="M 0,0 H 2093.15 V 1832.19 H 0 Z"
         transform="matrix(1,0,0,-1,-1137.459,861.94102)"
         id="path20" />
    </clipPath>
    <clipPath
       clipPathUnits="userSpaceOnUse"
       id="clipPath21">
      <path
         d="M 0,0 H 2093.15 V 1832.19 H 0 Z"
         transform="matrix(1,0,0,-1,-1176.861,863.44702)"
         id="path21" />
    </clipPath>
    <clipPath
       clipPathUnits="userSpaceOnUse"
       id="clipPath22">
      <path
         d="M 0,0 H 2093.15 V 1832.19 H 0 Z"
         transform="matrix(1,0,0,-1,-1231.199,868.91202)"
         id="path22" />
    </clipPath>
    <clipPath
       clipPathUnits="userSpaceOnUse"
       id="clipPath23">
      <path
         d="M 0,0 H 2093.15 V 1832.19 H 0 Z"
         transform="matrix(1,0,0,-1,-1231.199,854.46602)"
         id="path23" />
    </clipPath>
    <clipPath
       clipPathUnits="userSpaceOnUse"
       id="clipPath24">
      <path
         d="M 0,0 H 2093.15 V 1832.19 H 0 Z"
         transform="translate(-866.02402,-915.40802)"
         id="path24" />
    </clipPath>
    <clipPath
       clipPathUnits="userSpaceOnUse"
       id="clipPath25">
      <path
         d="M 0,0 H 2093.15 V 1832.19 H 0 Z"
         transform="matrix(1,0,0,-1,-1132.753,962.05602)"
         id="path25" />
    </clipPath>
    <clipPath
       clipPathUnits="userSpaceOnUse"
       id="clipPath26">
      <path
         d="M 0,0 H 2093.15 V 1832.19 H 0 Z"
         transform="matrix(1,0,0,-1,-1144.768,959.10302)"
         id="path26" />
    </clipPath>
    <clipPath
       clipPathUnits="userSpaceOnUse"
       id="clipPath27">
      <path
         d="M 0,0 H 2093.15 V 1832.19 H 0 Z"
         transform="matrix(1,0,0,-1,-1179.854,961.88202)"
         id="path27" />
    </clipPath>
    <clipPath
       clipPathUnits="userSpaceOnUse"
       id="clipPath28">
      <path
         d="M 0,0 H 2093.15 V 1832.19 H 0 Z"
         transform="matrix(1,0,0,-1,-1228.016,963.62802)"
         id="path28" />
    </clipPath>
    <clipPath
       clipPathUnits="userSpaceOnUse"
       id="clipPath29">
      <path
         d="M 0,0 H 2093.15 V 1832.19 H 0 Z"
         transform="translate(-859.62606,-921.80598)"
         id="path29" />
    </clipPath>
    <clipPath
       clipPathUnits="userSpaceOnUse"
       id="clipPath30">
      <path
         d="M 0,0 H 2093.15 V 1832.19 H 0 Z"
         transform="translate(-862.82505,-918.60699)"
         id="path30" />
    </clipPath>
    <clipPath
       clipPathUnits="userSpaceOnUse"
       id="clipPath31">
      <path
         d="M 0,0 H 2093.15 V 1832.19 H 0 Z"
         transform="translate(-866.02402,-915.40802)"
         id="path31" />
    </clipPath>
    <clipPath
       clipPathUnits="userSpaceOnUse"
       id="clipPath32">
      <path
         d="M 0,0 H 2093.15 V 1832.19 H 0 Z"
         transform="matrix(1,0,0,-1,-1077.405,861.85702)"
         id="path32" />
    </clipPath>
    <clipPath
       clipPathUnits="userSpaceOnUse"
       id="clipPath33">
      <path
         d="M 0,0 H 2093.15 V 1832.19 H 0 Z"
         transform="translate(-866.02402,-915.40802)"
         id="path33" />
    </clipPath>
    <clipPath
       clipPathUnits="userSpaceOnUse"
       id="clipPath34">
      <path
         d="M 0,0 H 2093.15 V 1832.19 H 0 Z"
         transform="translate(-906.81678,-915.4084)"
         id="path34" />
    </clipPath>
    <clipPath
       clipPathUnits="userSpaceOnUse"
       id="clipPath35">
      <path
         d="M 0,0 H 2093.15 V 1832.19 H 0 Z"
         transform="translate(-866.02402,-915.40802)"
         id="path35" />
    </clipPath>
    <clipPath
       clipPathUnits="userSpaceOnUse"
       id="clipPath36">
      <path
         d="M 0,0 H 2093.15 V 1832.19 H 0 Z"
         transform="translate(-981.714,-915.4084)"
         id="path36" />
    </clipPath>
    <clipPath
       clipPathUnits="userSpaceOnUse"
       id="clipPath37">
      <path
         d="M 0,0 H 2093.15 V 1832.19 H 0 Z"
         transform="matrix(1,0,0,-1,-956.77402,965.10502)"
         id="path37" />
    </clipPath>
    <clipPath
       clipPathUnits="userSpaceOnUse"
       id="clipPath38">
      <path
         d="M 0,0 H 2093.15 V 1832.19 H 0 Z"
         transform="translate(-963.64203,-954.26202)"
         id="path38" />
    </clipPath>
    <clipPath
       clipPathUnits="userSpaceOnUse"
       id="clipPath39">
      <path
         d="M 0,0 H 2093.15 V 1832.19 H 0 Z"
         transform="translate(-963.64203,-938.72102)"
         id="path39" />
    </clipPath>
    <clipPath
       clipPathUnits="userSpaceOnUse"
       id="clipPath40">
      <path
         d="M 0,0 H 2093.15 V 1832.19 H 0 Z"
         transform="translate(-963.64203,-923.17902)"
         id="path40" />
    </clipPath>
    <clipPath
       clipPathUnits="userSpaceOnUse"
       id="clipPath41">
      <path
         d="M 0,0 H 2093.15 V 1832.19 H 0 Z"
         transform="translate(-963.64203,-907.63702)"
         id="path41" />
    </clipPath>
    <clipPath
       clipPathUnits="userSpaceOnUse"
       id="clipPath42">
      <path
         d="M 0,0 H 2093.15 V 1832.19 H 0 Z"
         transform="translate(-963.64203,-892.09602)"
         id="path42" />
    </clipPath>
    <clipPath
       clipPathUnits="userSpaceOnUse"
       id="clipPath43">
      <path
         d="M 0,0 H 2093.15 V 1832.19 H 0 Z"
         transform="translate(-963.64203,-876.55402)"
         id="path43" />
    </clipPath>
    <clipPath
       clipPathUnits="userSpaceOnUse"
       id="clipPath44">
      <path
         d="M 0,0 H 2093.15 V 1832.19 H 0 Z"
         transform="translate(-866.02402,-915.40802)"
         id="path44" />
    </clipPath>
    <clipPath
       clipPathUnits="userSpaceOnUse"
       id="clipPath45">
      <path
         d="M 0,0 H 2093.15 V 1832.19 H 0 Z"
         transform="translate(-1027.1543,-915.4084)"
         id="path45" />
    </clipPath>
    <clipPath
       clipPathUnits="userSpaceOnUse"
       id="clipPath46">
      <path
         d="M 0,0 H 2093.15 V 1832.19 H 0 Z"
         transform="translate(-866.02402,-915.40802)"
         id="path46" />
    </clipPath>
    <clipPath
       clipPathUnits="userSpaceOnUse"
       id="clipPath47">
      <path
         d="M 0,0 H 2093.15 V 1832.19 H 0 Z"
         transform="rotate(-90,70.288821,971.28134)"
         id="path47" />
    </clipPath>
    <clipPath
       clipPathUnits="userSpaceOnUse"
       id="clipPath48">
      <path
         d="M 0,0 H 2093.15 V 1832.19 H 0 Z"
         transform="translate(-866.02402,-915.40802)"
         id="path48" />
    </clipPath>
    <clipPath
       clipPathUnits="userSpaceOnUse"
       id="clipPath49">
      <path
         d="M 0,0 H 2093.15 V 1832.19 H 0 Z"
         transform="translate(-1063.7833,-915.4084)"
         id="path49" />
    </clipPath>
    <clipPath
       clipPathUnits="userSpaceOnUse"
       id="clipPath50">
      <path
         d="M 0,0 H 2093.15 V 1832.19 H 0 Z"
         transform="translate(-866.02402,-915.40802)"
         id="path50" />
    </clipPath>
    <clipPath
       clipPathUnits="userSpaceOnUse"
       id="clipPath51">
      <path
         d="M 0,0 H 2093.15 V 1832.19 H 0 Z"
         transform="translate(-1123.397,-915.4084)"
         id="path51" />
    </clipPath>
    <clipPath
       clipPathUnits="userSpaceOnUse"
       id="clipPath52">
      <path
         d="M 0,0 H 2093.15 V 1832.19 H 0 Z"
         transform="translate(-866.02402,-915.40802)"
         id="path52" />
    </clipPath>
    <clipPath
       clipPathUnits="userSpaceOnUse"
       id="clipPath53">
      <path
         d="M 0,0 H 2093.15 V 1832.19 H 0 Z"
         transform="translate(-1123.3561,-871.6927)"
         id="path53" />
    </clipPath>
    <clipPath
       clipPathUnits="userSpaceOnUse"
       id="clipPath54">
      <path
         d="M 0,0 H 2093.15 V 1832.19 H 0 Z"
         transform="translate(-866.02402,-915.40802)"
         id="path54" />
    </clipPath>
    <clipPath
       clipPathUnits="userSpaceOnUse"
       id="clipPath55">
      <path
         d="M 0,0 H 2093.15 V 1832.19 H 0 Z"
         transform="translate(-1123.3561,-860.354)"
         id="path55" />
    </clipPath>
    <clipPath
       clipPathUnits="userSpaceOnUse"
       id="clipPath56">
      <path
         d="M 0,0 H 2093.15 V 1832.19 H 0 Z"
         transform="translate(-866.02402,-915.40802)"
         id="path56" />
    </clipPath>
    <clipPath
       clipPathUnits="userSpaceOnUse"
       id="clipPath57">
      <path
         d="M 0,0 H 2093.15 V 1832.19 H 0 Z"
         transform="translate(-1123.652,-964.79347)"
         id="path57" />
    </clipPath>
    <clipPath
       clipPathUnits="userSpaceOnUse"
       id="clipPath58">
      <path
         d="M 0,0 H 2093.15 V 1832.19 H 0 Z"
         transform="translate(-866.02402,-915.40802)"
         id="path58" />
    </clipPath>
    <clipPath
       clipPathUnits="userSpaceOnUse"
       id="clipPath59">
      <path
         d="M 0,0 H 2093.15 V 1832.19 H 0 Z"
         transform="translate(-1172.7821,-915.4084)"
         id="path59" />
    </clipPath>
    <clipPath
       clipPathUnits="userSpaceOnUse"
       id="clipPath60">
      <path
         d="M 0,0 H 2093.15 V 1832.19 H 0 Z"
         transform="translate(-866.02402,-915.40802)"
         id="path60" />
    </clipPath>
    <clipPath
       clipPathUnits="userSpaceOnUse"
       id="clipPath61">
      <path
         d="M 0,0 H 2093.15 V 1832.19 H 0 Z"
         transform="translate(-1169.2776,-964.79347)"
         id="path61" />
    </clipPath>
    <clipPath
       clipPathUnits="userSpaceOnUse"
       id="clipPath62">
      <path
         d="M 0,0 H 2093.15 V 1832.19 H 0 Z"
         transform="translate(-866.02402,-915.40802)"
         id="path62" />
    </clipPath>
    <clipPath
       clipPathUnits="userSpaceOnUse"
       id="clipPath63">
      <path
         d="M 0,0 H 2093.15 V 1832.19 H 0 Z"
         transform="translate(-1173.075,-866.02335)"
         id="path63" />
    </clipPath>
    <clipPath
       clipPathUnits="userSpaceOnUse"
       id="clipPath64">
      <path
         d="M 0,0 H 2093.15 V 1832.19 H 0 Z"
         transform="translate(-866.02402,-915.40802)"
         id="path64" />
    </clipPath>
    <clipPath
       clipPathUnits="userSpaceOnUse"
       id="clipPath65">
      <path
         d="M 0,0 H 2093.15 V 1832.19 H 0 Z"
         transform="rotate(180,593.2733,457.7042)"
         id="path65" />
    </clipPath>
    <clipPath
       clipPathUnits="userSpaceOnUse"
       id="clipPath66">
      <path
         d="M 0,0 H 2093.15 V 1832.19 H 0 Z"
         transform="translate(-1222.6907,-915.4084)"
         id="path66" />
    </clipPath>
    <clipPath
       clipPathUnits="userSpaceOnUse"
       id="clipPath67">
      <path
         d="M 0,0 H 2093.15 V 1832.19 H 0 Z"
         transform="matrix(1,0,0,-1,-1195.561,922.34202)"
         id="path67" />
    </clipPath>
    <clipPath
       clipPathUnits="userSpaceOnUse"
       id="clipPath68">
      <path
         d="M 0,0 H 2093.15 V 1832.19 H 0 Z"
         transform="translate(-866.02402,-915.40802)"
         id="path68" />
    </clipPath>
    <clipPath
       clipPathUnits="userSpaceOnUse"
       id="clipPath69">
      <path
         d="M 0,0 H 2093.15 V 1832.19 H 0 Z"
         transform="rotate(180,595.02554,482.39673)"
         id="path69" />
    </clipPath>
    <clipPath
       clipPathUnits="userSpaceOnUse"
       id="clipPath70">
      <path
         d="M 0,0 H 2093.15 V 1832.19 H 0 Z"
         transform="translate(-1224.2305,-964.79347)"
         id="path70" />
    </clipPath>
    <clipPath
       clipPathUnits="userSpaceOnUse"
       id="clipPath71">
      <path
         d="M 0,0 H 2093.15 V 1832.19 H 0 Z"
         transform="matrix(1,0,0,-1,-1194.98,973.61102)"
         id="path71" />
    </clipPath>
    <clipPath
       clipPathUnits="userSpaceOnUse"
       id="clipPath72">
      <path
         d="M 0,0 H 2093.15 V 1832.19 H 0 Z"
         transform="translate(-866.02402,-915.40802)"
         id="path72" />
    </clipPath>
    <clipPath
       clipPathUnits="userSpaceOnUse"
       id="clipPath73">
      <path
         d="M 0,0 H 2093.15 V 1832.19 H 0 Z"
         transform="rotate(180,593.12684,433.01167)"
         id="path73" />
    </clipPath>
    <clipPath
       clipPathUnits="userSpaceOnUse"
       id="clipPath74">
      <path
         d="M 0,0 H 2093.15 V 1832.19 H 0 Z"
         transform="translate(-1227.4135,-866.02335)"
         id="path74" />
    </clipPath>
    <clipPath
       clipPathUnits="userSpaceOnUse"
       id="clipPath75">
      <path
         d="M 0,0 H 2093.15 V 1832.19 H 0 Z"
         transform="matrix(1,0,0,-1,-1189.279,872.85502)"
         id="path75" />
    </clipPath>
    <clipPath
       clipPathUnits="userSpaceOnUse"
       id="clipPath76">
      <path
         d="M 0,0 H 2093.15 V 1832.19 H 0 Z"
         transform="matrix(1,0,0,-1,-1198.485,869.90202)"
         id="path76" />
    </clipPath>
  </defs>
  <sodipodi:namedview
     id="namedview1"
     pagecolor="#ffffff"
     bordercolor="#666666"
     borderopacity="1.0"
     inkscape:showpageshadow="2"
     inkscape:pageopacity="0.0"
     inkscape:pagecheckerboard="0"
     inkscape:deskcolor="#d1d1d1"
     inkscape:zoom="1.6458065"
     inkscape:cx="304.10622"
     inkscape:cy="63.190904"
     inkscape:window-width="1920"
     inkscape:window-height="1052"
     inkscape:window-x="0"
     inkscape:window-y="0"
     inkscape:window-maximized="1"
     inkscape:current-layer="g1">
    <inkscape:page
       x="0"
       y="0"
       inkscape:label="1"
       id="page1"
       width="524"
       height="176"
       margin="0"
       bleed="0" />
  </sodipodi:namedview>
  <g
     id="g1"
     inkscape:groupmode="layer"
     inkscape:label="1">
    <path
       d="M 15.03317,15.03317 H -15.03317 V -15.03317 H 15.03317 Z"
       style="fill:none;stroke:#000000;stroke-width:1.19553;stroke-linecap:butt;stroke-linejoin:miter;stroke-miterlimit:10;stroke-dasharray:none;stroke-opacity:1"
       transform="matrix(1.3333333,0,0,-1.3333333,21.365333,88.789333)"
       clip-path="url(#clipPath1)"
       id="path77" />
    <path
       d="m 6.9964453,9.375e-5 v -0.5625 H 6.1409766 L 4.1370703,-2.9413125 5.5316016,-4.4999063 C 5.6956641,-4.6639688 5.7659766,-4.746 6.7503516,-4.746 V -5.3085 L 5.6487891,-5.2733438 4.4183203,-5.3085 v 0.5625 c 0.1757813,0 0.3164063,0.023437 0.4570313,0.1054687 -0.046875,0.070312 -0.046875,0.09375 -0.09375,0.140625 l -1.0078125,1.125 L 2.6019141,-4.746 H 3.0823828 V -5.3085 L 1.6409766,-5.2733438 0.32847656,-5.3085 V -4.746 H 1.1722266 l 1.8632812,2.203125 -1.5703125,1.7578125 c -0.1992187,0.22265625 -0.63281249,0.22265625 -1.20703124,0.22265625 v 0.5625 L 1.3597266,-0.0350625 2.5901953,9.375e-5 v -0.5625 c -0.2109375,0 -0.4335937,-0.0585938 -0.4335937,-0.12890625 0,0 0,-0.0234375 0.082031,-0.1171875 l 1.1601563,-1.3125 1.3125,1.55859375 h -0.46875 v 0.5625 L 5.6839453,-0.0350625 Z m 0,0"
       style="fill:#000000;fill-opacity:1;fill-rule:nonzero;stroke:none"
       aria-label="ð±"
       transform="matrix(1.3333333,0,0,1.3333333,16.48,92.328)"
       clip-path="url(#clipPath2)"
       id="path78" />
    <path
       d="m 59.82773,14.17378 h 1.75894 c 7.82785,0 14.1734,-6.34555 14.1734,-14.1734 0,-7.82782 -6.34555,-14.17337 -14.1734,-14.17337 H 44.5786 v 28.34677 z"
       style="fill:none;stroke:#7ea6e0;stroke-width:1.19553;stroke-linecap:butt;stroke-linejoin:miter;stroke-miterlimit:10;stroke-dasharray:none;stroke-opacity:1"
       transform="matrix(1.3333333,0,0,-1.3333333,21.365333,88.789333)"
       clip-path="url(#clipPath3)"
       id="path79" />
    <path
       d="m 9.0823516,-8.3097422 c 0,-0.035156 -0.023437,-0.1171875 -0.1289063,-0.1171875 -0.035156,0 -0.046875,0.011719 -0.1757812,0.140625 l -0.84375,0.9257813 c -0.1054688,-0.1757813 -0.65625,-1.0664063 -1.9804688,-1.0664063 -2.6601562,0 -5.35546874,2.6367188 -5.35546874,5.4140625 0,1.8984375 1.32421874,3.26953126 3.25781254,3.26953126 0.5273437,0 1.0664062,-0.10546875 1.5,-0.28125 0.5976562,-0.234375 0.8203125,-0.4921875 1.0429687,-0.7265625 0.1054688,0.29296875 0.4101563,0.73828125 0.5390625,0.73828125 0.058594,0 0.082031,-0.046875 0.082031,-0.046875 0.023437,-0.0234375 0.140625,-0.48046875 0.1992187,-0.7265625 L 7.4417266,-1.7120859 c 0.058594,-0.1992188 0.1171875,-0.4101563 0.1640625,-0.609375 0.1289062,-0.5390625 0.140625,-0.5625 0.8203125,-0.5742188 0.058594,0 0.1875,-0.011719 0.1875,-0.234375 0,-0.082031 -0.058594,-0.1289062 -0.1523438,-0.1289062 -0.2695312,0 -0.9726562,0.035156 -1.2539062,0.035156 l -1.6757813,-0.035156 c -0.1054687,0 -0.2460937,0 -0.2460937,0.234375 0,0.1289062 0.09375,0.1289062 0.3515625,0.1289062 0,0 0.3632812,0 0.6445312,0.023437 0.3046875,0.035156 0.3632813,0.070312 0.3632813,0.234375 0,0.1054688 -0.1289063,0.6445313 -0.2460938,1.078125 -0.3398437,1.32421876 -1.8867187,1.45312501 -2.3085937,1.45312501 -1.1484375,0 -2.4023438,-0.6796875 -2.4023438,-2.50781251 0,-0.375 0.1171875,-2.34375 1.3710938,-3.9023437 0.6445312,-0.8085938 1.8046875,-1.5351563 2.9882812,-1.5351563 1.21875,0 1.921875,0.9140625 1.921875,2.296875 0,0.4804688 -0.035156,0.4921875 -0.035156,0.609375 0,0.1289063 0.140625,0.1289063 0.1875,0.1289063 0.1523437,0 0.1523437,-0.023437 0.2109375,-0.2460938 z m 0,0"
       style="fill:#7ea6e0;fill-opacity:1;fill-rule:nonzero;stroke:none"
       aria-label="ðº"
       transform="matrix(1.3333333,0,0,1.3333333,94.870667,94.232)"
       clip-path="url(#clipPath4)"
       id="path80" />
    <path
       d="M 149.5442,15.03291 H 119.47786 V -15.03343 H 149.5442 Z"
       style="fill:none;stroke:#67ab9f;stroke-width:1.19553;stroke-linecap:butt;stroke-linejoin:miter;stroke-miterlimit:10;stroke-dasharray:none;stroke-opacity:1"
       transform="matrix(1.3333333,0,0,-1.3333333,21.365333,88.789333)"
       clip-path="url(#clipPath5)"
       id="path81" />
    <path
       d="m 5.4013828,-7.9675703 c 0,-0.1640625 -0.09375,-0.28125 -0.2460937,-0.3164063 -0.4453125,-0.1054687 -0.9492188,-0.2226562 -1.3828125,-0.2226562 -0.1054688,0 -0.2109375,0.011719 -0.3046875,0.023437 -0.1640625,0.035156 -0.3515625,0.082031 -0.515625,0.1875 -0.1523438,0.09375 -0.2929688,0.2460937 -0.375,0.4101562 -0.1054688,0.1757813 -0.140625,0.375 -0.140625,0.609375 0,0.6328125 0.375,1.3945313 0.7265625,2.0625 -0.4921875,0.1054688 -0.9609375,0.3632813 -1.3828125,0.7148438 -0.5976563,0.515625 -1.00781254,1.1953125 -1.17187504,1.8984375 -0.0703125,0.2460937 -0.09375,0.4804687 -0.09375,0.7265625 0,0.4453125 0.10546875,0.84375 0.328125,1.19531249 0.32812504,0.50390625 0.89062504,0.80859375 1.55859374,0.80859375 1.0546875,0 1.9101563,-1.13671874 2.203125,-2.30859374 0.1054688,-0.3984375 0.1640625,-0.8203125 0.1640625,-1.21875 0,-0.1875 -0.011719,-0.3632813 -0.035156,-0.5507813 -0.1054688,-0.5625 -0.3632813,-1.03125 -0.6914063,-1.453125 -0.5273437,-0.6796875 -1.2773437,-1.6289062 -1.2773437,-2.1679687 0,-0.070312 0.011719,-0.140625 0.046875,-0.1992188 0.058594,-0.1054687 0.1523437,-0.2109375 0.2578125,-0.2695312 0.1289062,-0.070312 0.2578125,-0.082031 0.3867187,-0.082031 0.5390625,0.023437 0.8671875,0.4101563 1.3242188,0.5976563 0.046875,0.011719 0.09375,0.023437 0.1289062,0.023437 0.1757813,0 0.3515625,-0.1054688 0.4335938,-0.2578125 0.035156,-0.070312 0.058594,-0.140625 0.058594,-0.2109368 z m -1.453125,5.0507812 c 0,0.3164063 -0.035156,0.6445313 -0.1289062,0.9726563 -0.2226563,0.8671875 -0.65625,1.81640624 -1.40625,1.81640624 -0.4921875,0 -0.84375,-0.28125 -1.03125,-0.6796875 -0.09375,-0.22265624 -0.140625,-0.46875004 -0.140625,-0.73828124 0,-0.3164063 0.070312,-0.6679688 0.1523437,-0.9960938 0.1640625,-0.6210937 0.3984375,-1.2539062 0.8789063,-1.7578125 0.28125,-0.3164062 0.65625,-0.5507812 1.03125,-0.65625 l 0.035156,0.058594 c 0.234375,0.4335937 0.4453125,0.8789062 0.5507813,1.3828125 0.046875,0.1875 0.058594,0.3984375 0.058594,0.597656 z m 0,0"
       style="fill:#67ab9f;fill-opacity:1;fill-rule:nonzero;stroke:none"
       aria-label="ð›¿"
       transform="matrix(1.3333333,0,0,1.3333333,196.888,94.377333)"
       clip-path="url(#clipPath6)"
       id="path82" />
    <path
       d="m 186.1762,3.8e-4 c 0,5.8709 -4.75918,10.63005 -10.63006,10.63005 -5.87088,0 -10.63004,-4.75915 -10.63004,-10.63005 0,-5.87086 4.75916,-10.63002 10.63004,-10.63002 5.87088,0 10.63006,4.75916 10.63006,10.63002 z"
       style="fill:none;stroke:#67ab9f;stroke-width:1.19553;stroke-linecap:butt;stroke-linejoin:miter;stroke-miterlimit:10;stroke-dasharray:none;stroke-opacity:1"
       transform="matrix(1.3333333,0,0,-1.3333333,21.365333,88.789333)"
       clip-path="url(#clipPath7)"
       id="path83" />
    <path
       d="M 175.54614,11.2282 V -11.2274"
       style="fill:none;stroke:#67ab9f;stroke-width:1.19553;stroke-linecap:butt;stroke-linejoin:miter;stroke-miterlimit:10;stroke-dasharray:none;stroke-opacity:1"
       transform="matrix(1.3333333,0,0,-1.3333333,21.365333,88.789333)"
       clip-path="url(#clipPath8)"
       id="path84" />
    <path
       d="m 164.31834,3.8e-4 h 22.4556"
       style="fill:none;stroke:#67ab9f;stroke-width:1.19553;stroke-linecap:butt;stroke-linejoin:miter;stroke-miterlimit:10;stroke-dasharray:none;stroke-opacity:1"
       transform="matrix(1.3333333,0,0,-1.3333333,21.365333,88.789333)"
       clip-path="url(#clipPath9)"
       id="path85" />
    <path
       d="m 231.61263,15.03278 h -30.06637 v -30.06635 h 30.06637 z"
       style="fill:none;stroke:#67ab9f;stroke-width:1.19553;stroke-linecap:butt;stroke-linejoin:miter;stroke-miterlimit:10;stroke-dasharray:none;stroke-opacity:1"
       transform="matrix(1.3333333,0,0,-1.3333333,21.365333,88.789333)"
       clip-path="url(#clipPath10)"
       id="path86" />
    <path
       d="m 6.3033594,-4.4994609 c 0,-0.6210938 -0.7148438,-0.7851563 -1.1132813,-0.7851563 -0.6914062,0 -1.1132812,0.6328125 -1.2539062,0.9140625 -0.3046875,-0.796875 -0.9492188,-0.9140625 -1.3007813,-0.9140625 -1.2421875,0 -1.92187498,1.546875 -1.92187498,1.8398438 0,0.1171875 0.140625,0.1171875 0.140625,0.1171875 0.10546875,0 0.140625,-0.023437 0.16406248,-0.1289063 0.3984375,-1.265625 1.1953125,-1.5585937 1.59375,-1.5585937 0.234375,0 0.6445313,0.1054687 0.6445313,0.796875 0,0.375 -0.1992188,1.171875 -0.6445313,2.8476562 -0.1875,0.73828126 -0.609375,1.24218751 -1.1367187,1.24218751 -0.070312,0 -0.3398438,0 -0.59765628,-0.15234375 0.30468748,-0.0703125 0.56249998,-0.31640625 0.56249998,-0.65625 0,-0.31640626 -0.2578125,-0.41015626 -0.4335937,-0.41015626 -0.36328128,0 -0.65625003,0.3046875 -0.65625003,0.69140626 0,0.55078125 0.59765625,0.78515625 1.11328123,0.78515625 0.796875,0 1.2304688,-0.83203125 1.265625,-0.90234375 0.140625,0.43359375 0.5742188,0.90234375 1.2890625,0.90234375 1.2304688,0 1.9101563,-1.53515621 1.9101563,-1.83984371 0,-0.1171875 -0.1054688,-0.1171875 -0.140625,-0.1171875 -0.1054688,0 -0.140625,0.046875 -0.1640625,0.1289062 -0.3867188,1.27734376 -1.2070313,1.57031251 -1.5820313,1.57031251 -0.46875,0 -0.65625,-0.38671875 -0.65625,-0.796875 0,-0.25781251 0.070312,-0.51562501 0.1992188,-1.04296871 l 0.4101562,-1.640625 c 0.070312,-0.3164063 0.3398438,-1.40625 1.1835938,-1.40625 0.058594,0 0.3398437,0 0.5976562,0.1523437 -0.3398437,0.058594 -0.5742187,0.3515625 -0.5742187,0.6445313 0,0.1875 0.1289062,0.421875 0.4453125,0.421875 0.2695312,0 0.65625,-0.2226563 0.65625,-0.703125 z m 0,0"
       style="fill:#67ab9f;fill-opacity:1;fill-rule:nonzero;stroke:none"
       aria-label="ð‘¥"
       transform="matrix(1.3333333,0,0,1.3333333,298.85333,95.636)"
       clip-path="url(#clipPath11)"
       id="path87" />
    <text
       xml:space="preserve"
       transform="matrix(1.3333333,0,0,1.3333333,307.972,89.849333)"
       clip-path="url(#clipPath12)"
       id="text87"
       style="fill:#67ab9f;fill-opacity:1"><tspan
         style="font-variant:normal;font-weight:normal;font-size:8.3686px;font-family:'Open Sans';writing-mode:lr-tb;fill:#67ab9f;fill-opacity:1;fill-rule:nonzero;stroke:none"
         x="0 5.2722182"
         y="0"
         sodipodi:role="line"
         id="tspan87">CF</tspan></text>
    <path
       d="M 15.63403,3.8e-4 H 40.79276"
       style="fill:none;stroke:#000000;stroke-width:1.19553;stroke-linecap:butt;stroke-linejoin:miter;stroke-miterlimit:10;stroke-dasharray:none;stroke-opacity:1"
       transform="matrix(1.3333333,0,0,-1.3333333,21.365333,88.789333)"
       clip-path="url(#clipPath33)"
       id="path105" />
    <path
       d="M 3.18808,0 -1.91284,2.55046 0,0 -1.91284,-2.55046"
       style="fill:#000000;fill-opacity:1;fill-rule:nonzero;stroke:none"
       transform="matrix(1.3333333,0,0,-1.3333333,75.75568,88.788827)"
       clip-path="url(#clipPath34)"
       id="path106" />
    <path
       d="m 76.35783,3.8e-4 h 39.33214"
       style="fill:none;stroke:#7ea6e0;stroke-width:1.19553;stroke-linecap:butt;stroke-linejoin:miter;stroke-miterlimit:10;stroke-dasharray:none;stroke-opacity:1"
       transform="matrix(1.3333333,0,0,-1.3333333,21.365333,88.789333)"
       clip-path="url(#clipPath35)"
       id="path107" />
    <path
       d="M 3.18808,0 -1.91284,2.55046 0,0 -1.91284,-2.55046"
       style="fill:#7ea6e0;fill-opacity:1;fill-rule:nonzero;stroke:none"
       transform="matrix(1.3333333,0,0,-1.3333333,175.61863,88.788827)"
       clip-path="url(#clipPath36)"
       id="path108" />
    <path
       d="m 13.255297,-7.8158984 c 0.02344,-0.1171875 -0.02344,-0.2226563 -0.08203,-0.3164063 -0.117188,-0.1523437 -0.304688,-0.2109375 -0.515625,-0.2109375 -0.691407,0 -1.417969,0.4335938 -2.015625,0.9140625 -0.8203129,0.6328125 -1.5000004,1.40625 -2.1093754,2.2148438 -0.7382812,0.984375 -1.3242187,1.9101562 -1.8632812,2.9882812 l -0.070312,-0.023437 c 0.046875,-1.1132812 0,-2.1328125 -0.1757813,-3.1875 -0.1640625,-0.8671875 -0.3398437,-1.6640625 -0.84375,-2.3203125 h -0.035156 c -0.2578125,-0.375 -0.6796875,-0.5976562 -1.1953125,-0.5976562 -0.4335938,0 -0.9023438,0.1992187 -1.3007813,0.515625 -0.1875,0.1640625 -0.3515625,0.3632812 -0.4921875,0.5859375 -0.1757812,0.28125 -0.3046875,0.5859375 -0.4335937,0.890625 l 0.2460937,-0.011719 c 0.1523438,-0.3632812 0.3632813,-0.7382812 0.6914063,-0.9960937 0.2460937,-0.1992188 0.5273437,-0.328125 0.796875,-0.328125 0.375,0 0.6796875,0.1875 0.84375,0.4804687 l -0.984375,3.9492188 c -0.1289063,0.4921875 -0.28125,0.9960937 -0.5390625,1.4882812 -0.1757813,0.3515625 -0.375,0.6914063 -0.6914063,0.94921876 -0.1757812,0.140625 -0.3867187,0.28125 -0.5976562,0.28125 -0.2109375,0 -0.375,-0.12890625 -0.421875,-0.328125 -0.046877,-0.18750026 -0.1640642,-0.30468776 -0.363283,-0.30468776 -0.11718748,0 -0.25781248,0.046875 -0.36328123,0.1289062 -0.1171875,0.10546876 -0.19921875,0.22265626 -0.234375,0.36328126 -0.046875,0.1875 0,0.3515625 0.0820313,0.4921875 0.1640625,0.1992187525 0.42187493,0.31640625 0.71484373,0.31640625 0.375,0 0.7500001,-0.140625 1.0781251,-0.3984375 0.515625,-0.41015625 0.8554686,-0.93750001 1.1367187,-1.48828121 0.3984375,-0.75 0.6562499,-1.5351563 0.8437499,-2.3085938 l 0.6796875,-2.6953125 c 0.234375,0.2929688 0.3632813,0.65625 0.4570313,1.0195313 0.140625,0.4921875 0.2109375,1.0078125 0.2578125,1.5234375 0.09375,1.40625 -0.011719,2.8007812 -0.2109375,4.26562496 l 0.09375,0.08203125 0.6210937,-0.421875 C 6.7865469,-1.6635547 7.3959219,-2.9408984 8.2162344,-4.2182422 c 0.6210937,-0.984375 1.3476562,-1.9335937 2.2851566,-2.6953125 -0.257813,0.84375 -0.410157,1.6757813 -0.6210941,2.5195313 l -0.7851563,3.234375 c -0.046875,0.42187496 -0.070312,0.70312496 0.140625,1.00781246 0.1523438,0.1875 0.3867188,0.3046875 0.6796875,0.3046875 0.3749999,0 0.7499999,-0.2578125 1.0781249,-0.52734375 0.269531,-0.2109375 0.527344,-0.43359375 0.761719,-0.69140621 l -0.1875,-0.1757813 c -0.175781,0.2109375 -0.386719,0.42187501 -0.609375,0.58593751 -0.164063,0.140625 -0.363281,0.234375 -0.5625,0.234375 -0.117188,0 -0.199219,-0.046875 -0.269531,-0.1171875 C 9.9623281,-0.78464844 9.9740469,-0.99558594 9.9974844,-1.3354297 10.044359,-1.9565234 10.161547,-2.5893359 10.325609,-3.2221484 l 0.972657,-3.890625 c 0.04687,-0.1992188 0.199218,-0.4921875 0.386718,-0.6445313 0.105469,-0.070312 0.222657,-0.1171875 0.328125,-0.1171875 0.105469,0 0.1875,0.058594 0.246094,0.1289063 0.03516,0.046875 0.03516,0.1171875 0.03516,0.1757812 0.02344,0.070312 0.07031,0.140625 0.105469,0.1992188 0.03516,0.046875 0.140625,0.046875 0.222656,0.046875 0.152344,0 0.328125,-0.070312 0.457032,-0.1992188 0.105468,-0.070312 0.140625,-0.1875 0.175781,-0.2929687 z m 0,0"
       style="fill:#ea6b66;fill-opacity:1;fill-rule:nonzero;stroke:none"
       aria-label="â„³"
       transform="matrix(1.3333333,0,0,1.3333333,142.36533,22.526667)"
       clip-path="url(#clipPath37)"
       id="path109" />
    <path
       d="M -7.17317,-7.17317 H 7.17317 V 7.17317 H -7.17317 Z"
       style="fill:#ea6b66;fill-opacity:1;fill-rule:nonzero;stroke:#ea6b66;stroke-width:1.19553;stroke-linecap:butt;stroke-linejoin:miter;stroke-miterlimit:10;stroke-dasharray:none;stroke-opacity:1"
       transform="matrix(1.3333333,0,0,-1.3333333,151.52267,36.984)"
       clip-path="url(#clipPath38)"
       id="path110" />
    <path
       d="M -7.17317,-7.17317 H 7.17317 V 7.17317 H -7.17317 Z"
       style="fill:#ffffff;fill-opacity:1;fill-rule:nonzero;stroke:#ea6b66;stroke-width:1.19553;stroke-linecap:butt;stroke-linejoin:miter;stroke-miterlimit:10;stroke-dasharray:none;stroke-opacity:1"
       transform="matrix(1.3333333,0,0,-1.3333333,151.52267,57.705333)"
       clip-path="url(#clipPath39)"
       id="path111" />
    <path
       d="M -7.17317,-7.17317 H 7.17317 V 7.17317 H -7.17317 Z"
       style="fill:#ea6b66;fill-opacity:1;fill-rule:nonzero;stroke:#ea6b66;stroke-width:1.19553;stroke-linecap:butt;stroke-linejoin:miter;stroke-miterlimit:10;stroke-dasharray:none;stroke-opacity:1"
       transform="matrix(1.3333333,0,0,-1.3333333,151.52267,78.428)"
       clip-path="url(#clipPath40)"
       id="path112" />
    <path
       d="M -7.17317,-7.17317 H 7.17317 V 7.17317 H -7.17317 Z"
       style="fill:#ffffff;fill-opacity:1;fill-rule:nonzero;stroke:#ea6b66;stroke-width:1.19553;stroke-linecap:butt;stroke-linejoin:miter;stroke-miterlimit:10;stroke-dasharray:none;stroke-opacity:1"
       transform="matrix(1.3333333,0,0,-1.3333333,151.52267,99.150667)"
       clip-path="url(#clipPath41)"
       id="path113" />
    <path
       d="M -7.17317,-7.17317 H 7.17317 V 7.17317 H -7.17317 Z"
       style="fill:#ea6b66;fill-opacity:1;fill-rule:nonzero;stroke:#ea6b66;stroke-width:1.19553;stroke-linecap:butt;stroke-linejoin:miter;stroke-miterlimit:10;stroke-dasharray:none;stroke-opacity:1"
       transform="matrix(1.3333333,0,0,-1.3333333,151.52267,119.872)"
       clip-path="url(#clipPath42)"
       id="path114" />
    <path
       d="M -7.17317,-7.17317 H 7.17317 V 7.17317 H -7.17317 Z"
       style="fill:#ffffff;fill-opacity:1;fill-rule:nonzero;stroke:#ea6b66;stroke-width:1.19553;stroke-linecap:butt;stroke-linejoin:miter;stroke-miterlimit:10;stroke-dasharray:none;stroke-opacity:1"
       transform="matrix(1.3333333,0,0,-1.3333333,151.52267,140.59467)"
       clip-path="url(#clipPath43)"
       id="path115" />
    <path
       d="m 150.14494,3.8e-4 h 10.98532"
       style="fill:none;stroke:#67ab9f;stroke-width:1.19553;stroke-linecap:butt;stroke-linejoin:miter;stroke-miterlimit:10;stroke-dasharray:none;stroke-opacity:1"
       transform="matrix(1.3333333,0,0,-1.3333333,21.365333,88.789333)"
       clip-path="url(#clipPath44)"
       id="path116" />
    <path
       d="M 3.18808,0 -1.91284,2.55046 0,0 -1.91284,-2.55046"
       style="fill:#67ab9f;fill-opacity:1;fill-rule:nonzero;stroke:none"
       transform="matrix(1.3333333,0,0,-1.3333333,236.20568,88.788827)"
       clip-path="url(#clipPath45)"
       id="path117" />
    <path
       d="M 7.2e-4,-15.63342 V -49.6496 h 175.54542 v 35.23412"
       style="fill:none;stroke:#67ab9f;stroke-width:1.19553;stroke-linecap:butt;stroke-linejoin:miter;stroke-miterlimit:10;stroke-dasharray:none;stroke-opacity:1"
       transform="matrix(1.3333333,0,0,-1.3333333,21.365333,88.789333)"
       clip-path="url(#clipPath46)"
       id="path118" />
    <path
       d="M 3.18808,0 -1.91284,2.55046 0,0 -1.91284,-2.55046"
       style="fill:#67ab9f;fill-opacity:1;fill-rule:nonzero;stroke:none;stroke-opacity:1"
       transform="matrix(0,-1.3333333,-1.3333333,0,255.42685,108.00997)"
       clip-path="url(#clipPath47)"
       id="path119" />
    <path
       d="m 186.77394,3.8e-4 h 10.98532"
       style="fill:none;stroke:#67ab9f;stroke-width:1.19553;stroke-linecap:butt;stroke-linejoin:miter;stroke-miterlimit:10;stroke-dasharray:none;stroke-opacity:1"
       transform="matrix(1.3333333,0,0,-1.3333333,21.365333,88.789333)"
       clip-path="url(#clipPath48)"
       id="path120" />
    <path
       d="M 3.18808,0 -1.91284,2.55046 0,0 -1.91284,-2.55046"
       style="fill:#67ab9f;fill-opacity:1;fill-rule:nonzero;stroke:none"
       transform="matrix(1.3333333,0,0,-1.3333333,285.04435,88.788827)"
       clip-path="url(#clipPath49)"
       id="path121" />
    <path
       d="M 3.18808,0 -1.91284,2.55046 0,0 -1.91284,-2.55046"
       style="fill:#67ab9f;fill-opacity:1;fill-rule:nonzero;stroke:none"
       transform="matrix(1.3333333,0,0,-1.3333333,364.52929,88.788827)"
       clip-path="url(#clipPath51)"
       id="path123" />
    <path
       d="m 276.40794,14.17378 h 1.75895 c 7.82785,0 14.1734,-6.34555 14.1734,-14.1734 0,-7.82782 -6.34555,-14.17337 -14.1734,-14.17337 h -17.00808 v 28.34677 z"
       style="fill:none;stroke:#67ab9f;stroke-width:1.19553;stroke-linecap:butt;stroke-linejoin:miter;stroke-miterlimit:10;stroke-dasharray:none;stroke-opacity:1"
       transform="matrix(1.3333333,0,0,-1.3333333,21.365333,88.789333)"
       clip-path="url(#clipPath13)"
       id="path88" />
    <path
       d="m 7.9451406,-2.7902109 c 0,-0.1171875 0,-0.1992188 -0.1523437,-0.1992188 -0.1289063,0 -0.1289063,0.070312 -0.140625,0.1875 -0.09375,1.7109375 -1.3710938,2.69531251 -2.6835938,2.69531251 -0.7265625,0 -3.0703125,-0.41015625 -3.0703125,-3.97265621 0,-3.5742188 2.3320313,-3.9726563 3.0585938,-3.9726563 1.3007812,0 2.3671875,1.078125 2.6132812,2.8242188 0.023437,0.1757812 0.023437,0.2109375 0.1875,0.2109375 0.1875,0 0.1875,-0.035156 0.1875,-0.2929688 v -2.8359375 c 0,-0.1992187 0,-0.28125 -0.1289062,-0.28125 -0.046875,0 -0.09375,0 -0.1875,0.140625 l -0.5976563,0.890625 c -0.4453125,-0.4335937 -1.0546875,-1.03125 -2.203125,-1.03125 -2.2382812,0 -4.16015623,1.8984375 -4.16015623,4.3359375 0,2.4726563 1.93359373,4.34765626 4.16015623,4.34765626 1.9453125,0 3.1171875,-1.65234376 3.1171875,-3.04687496 z m 3.7324214,2.78906246 v -0.375 c -0.796875,0 -0.925781,0 -0.925781,-0.5390625 V -8.2980234 l -1.722656,0.1289062 v 0.375 c 0.8320312,0 0.9257812,0.082031 0.9257812,0.6679688 v 6.21093746 c 0,0.5390625 -0.1289062,0.5390625 -0.9257812,0.5390625 v 0.375 l 1.324219,-0.03515625 z m 0,0"
       style="fill:#67ab9f;fill-opacity:1;fill-rule:nonzero;stroke:none"
       aria-label="Cl"
       transform="matrix(1.3333333,0,0,1.3333333,381.89867,94.232)"
       clip-path="url(#clipPath14)"
       id="path89" />
    <path
       d="M -0.98302344,-7.2549766 C -1.6509922,-7.8409141 -2.3775547,-8.3448203 -3.1509922,-8.7784141 c -0.7851562,0.4335938 -1.5117187,0.9375 -2.1796875,1.5234375 l 0.140625,0.234375 c 0.6914063,-0.2929687 1.3828125,-0.6445312 2.0390625,-1.0078125 0.65625,0.3632813 1.3359375,0.7148438 2.0273438,1.0078125 z m 0,0"
       style="fill:#67ab9f;fill-opacity:1;fill-rule:nonzero;stroke:none"
       aria-label="Ì‚"
       transform="matrix(1.3333333,0,0,1.3333333,444.47867,93.005333)"
       clip-path="url(#clipPath15)"
       id="path90" />
    <path
       d="m 5.8602645,-4.8291953 c 0,-0.2109375 -0.1640625,-0.328125 -0.3515625,-0.328125 -0.1171875,0 -0.3046875,0.070312 -0.4101562,0.2578125 -0.035156,0.058594 -0.1289063,0.4335937 -0.1757813,0.6445312 l -0.234375,0.9492188 -0.5390625,2.15625 c -0.046875,0.17578124 -0.5625,1.01953124 -1.3476562,1.01953124 -0.609375,0 -0.75,-0.52734375 -0.75,-0.97265624 0,-0.5507813 0.2109375,-1.2890625 0.609375,-2.34375 0.1992187,-0.4921875 0.2460937,-0.6210938 0.2460937,-0.8554688 0,-0.5390625 -0.3867187,-0.984375 -0.984375,-0.984375 -1.13671871,0 -1.57031246,1.734375 -1.57031246,1.8398438 0,0.1171875 0.140625,0.1171875 0.140625,0.1171875 0.1171875,0 0.12890625,-0.023437 0.1875,-0.2109375 0.32812496,-1.125 0.79687496,-1.4765625 1.20703126,-1.4765625 0.09375,0 0.3046875,0 0.3046875,0.375 0,0.3046875 -0.1289063,0.609375 -0.2109375,0.84375 -0.46875,1.265625 -0.6914063,1.9453125 -0.6914063,2.5078125 0,1.06640624 0.75,1.41796874 1.4648438,1.41796874 0.4570312,0 0.8671875,-0.19921875 1.2070312,-0.5390625 C 3.7977645,0.20986719 3.6571395,0.79580469 3.1766708,1.4286172 2.8719833,1.8387734 2.414952,2.1903359 1.8641708,2.1903359 c -0.1640625,0 -0.703125,-0.035156 -0.90234376,-0.5039062 0.18749996,0 0.33984376,0 0.50390626,-0.140625 C 1.5946395,1.4286172 1.711827,1.2762734 1.711827,1.0536172 c 0,-0.37500001 -0.328125,-0.42187501 -0.4453125,-0.42187501 -0.26953121,0 -0.66796871,0.1875 -0.66796871,0.77343751 0,0.5976562 0.52734371,1.0429687 1.26562501,1.0429687 1.2304687,0 2.4609375,-1.0898437 2.8007812,-2.43749996 L 5.8133895,-4.5596641 c 0.046875,-0.1640625 0.046875,-0.1875 0.046875,-0.2695312 z m 0,0"
       style="fill:#67ab9f;fill-opacity:1;fill-rule:nonzero;stroke:none"
       aria-label="ð‘¦"
       transform="matrix(1.3333333,0,0,1.3333333,435.4246,93.005333)"
       clip-path="url(#clipPath16)"
       id="path91" />
    <path
       d="m 5.8599375,-4.8267422 c 0,-0.2109375 -0.1640625,-0.328125 -0.3515625,-0.328125 -0.1171875,0 -0.3046875,0.070312 -0.4101563,0.2578125 -0.035156,0.058594 -0.1289062,0.4335938 -0.1757812,0.6445313 L 4.6880625,-3.3033047 4.149,-1.1470547 c -0.046875,0.17578126 -0.5625,1.01953126 -1.3476563,1.01953126 -0.609375,0 -0.75,-0.52734375 -0.75,-0.97265626 0,-0.5507812 0.2109375,-1.2890625 0.609375,-2.34375 0.1992188,-0.4921875 0.2460938,-0.6210937 0.2460938,-0.8554687 0,-0.5390625 -0.3867188,-0.984375 -0.984375,-0.984375 -1.13671875,0 -1.5703125,1.734375 -1.5703125,1.8398437 0,0.1171875 0.140625,0.1171875 0.140625,0.1171875 0.1171875,0 0.12890625,-0.023437 0.1875,-0.2109375 0.328125,-1.125 0.796875,-1.4765625 1.2070312,-1.4765625 0.09375,0 0.3046875,0 0.3046875,0.375 0,0.3046875 -0.1289062,0.609375 -0.2109375,0.84375 -0.46875,1.265625 -0.6914062,1.9453125 -0.6914062,2.5078125 0,1.06640626 0.75,1.41796876 1.4648437,1.41796876 0.4570313,0 0.8671875,-0.19921875 1.2070313,-0.5390625 C 3.7974375,0.21232031 3.6568125,0.79825781 3.1763437,1.4310703 2.8716562,1.8412266 2.414625,2.1927891 1.8638437,2.1927891 c -0.1640625,0 -0.703125,-0.035156 -0.9023437,-0.5039063 0.1875,0 0.3398437,0 0.5039062,-0.140625 C 1.5943125,1.4310703 1.7115,1.2787266 1.7115,1.0560703 c 0,-0.37499999 -0.328125,-0.42187499 -0.4453125,-0.42187499 -0.26953125,0 -0.66796875,0.1875 -0.66796875,0.77343749 0,0.5976563 0.52734375,1.0429688 1.26562495,1.0429688 1.2304688,0 2.4609375,-1.0898438 2.8007813,-2.43750004 L 5.8130625,-4.5572109 c 0.046875,-0.1640625 0.046875,-0.1875 0.046875,-0.2695313 z m 0,0"
       style="fill:#67ab9f;fill-opacity:1;fill-rule:nonzero;stroke:none"
       aria-label="ð‘¦"
       transform="matrix(1.3333333,0,0,1.3333333,501.968,94.088)"
       clip-path="url(#clipPath17)"
       id="path92" />
    <text
       xml:space="preserve"
       transform="matrix(1.3333333,0,0,1.3333333,510.22533,88.301333)"
       clip-path="url(#clipPath18)"
       id="text92"
       style="fill:#67ab9f;fill-opacity:1"><tspan
         style="font-variant:normal;font-weight:normal;font-size:8.3686px;font-family:'Open Sans';writing-mode:lr-tb;fill:#67ab9f;fill-opacity:1;fill-rule:nonzero;stroke:none"
         x="0 5.2722182"
         y="0"
         sodipodi:role="line"
         id="tspan92">CF</tspan></text>
    <path
       d="m 232.21423,3.8e-4 h 25.15874"
       style="fill:none;stroke:#67ab9f;stroke-width:1.19553;stroke-linecap:butt;stroke-linejoin:miter;stroke-miterlimit:10;stroke-dasharray:none;stroke-opacity:1"
       transform="matrix(1.3333333,0,0,-1.3333333,21.365333,88.789333)"
       clip-path="url(#clipPath50)"
       id="path122" />
    <path
       d="m 292.93805,3.8e-4 h 13.81999"
       style="fill:none;stroke:#67ab9f;stroke-width:1.19553;stroke-linecap:butt;stroke-linejoin:miter;stroke-miterlimit:10;stroke-dasharray:none;stroke-opacity:1"
       transform="matrix(1.3333333,0,0,-1.3333333,21.365333,88.789333)"
       clip-path="url(#clipPath58)"
       id="path130" />
    <path
       d="M 3.18808,0 -1.91284,2.55046 0,0 -1.91284,-2.55046"
       style="fill:#67ab9f;fill-opacity:1;fill-rule:nonzero;stroke:none"
       transform="matrix(1.3333333,0,0,-1.3333333,430.37605,88.788827)"
       clip-path="url(#clipPath59)"
       id="path131" />
    <path
       d="m 320.52258,3.8e-4 h 36.14406"
       style="fill:none;stroke:#67ab9f;stroke-width:1.19553;stroke-linecap:butt;stroke-linejoin:miter;stroke-miterlimit:10;stroke-dasharray:2.98883, 2.98883;stroke-dashoffset:0;stroke-opacity:1;fill-opacity:1"
       transform="matrix(1.3333333,0,0,-1.3333333,21.365333,88.789333)"
       clip-path="url(#clipPath64)"
       id="path136" />
    <path
       d="M 3.18808,0 -1.91284,2.55046 0,0 -1.91284,-2.55046"
       style="fill:#67ab9f;fill-opacity:1;fill-rule:nonzero;stroke:none"
       transform="matrix(-1.3333333,0,0,1.3333333,448.72877,88.788827)"
       clip-path="url(#clipPath65)"
       id="path137" />
    <path
       d="M 3.18808,0 -1.91284,2.55046 0,0 -1.91284,-2.55046"
       style="fill:#67ab9f;fill-opacity:1;fill-rule:nonzero;stroke:none"
       transform="matrix(1.3333333,0,0,-1.3333333,496.92085,88.788827)"
       clip-path="url(#clipPath66)"
       id="path138" />
    <path
       d="m 6.0923203,-5.0749922 c 0.035156,-0.1757812 0.011719,-0.328125 -0.082031,-0.4453125 -0.1171875,-0.1640625 -0.3515625,-0.2109375 -0.609375,-0.2109375 -0.4335938,0 -0.9140625,0.1289063 -1.3007813,0.421875 -0.28125,0.2226563 -0.5507812,0.5039063 -0.75,0.7851563 -0.2695312,0.375 -0.4101562,0.75 -0.5625,1.1484375 -0.2226562,0.5859375 -0.6210937,1.453125 -0.9609375,1.7109375 -0.140625,0.1171875 -0.3398437,0.2460937 -0.4804687,0.328125 -0.1171875,0.082031 -0.36328129,0.2226562 -0.48046879,0.36328121 -0.26953125,0.328125 -0.4453125,0.609375 -0.52734375,0.87890625 l 0.12890625,0.140625 c 0.12890625,-0.22265625 0.3046875,-0.48046875 0.50390625,-0.71484375 0.12890624,-0.1640625 0.44531254,-0.29296875 0.63281254,-0.29296875 0.2226562,0 0.609375,0.17578125 1.0664062,0.5390625 0.1757813,0.17578125 0.3046875,0.24609375 0.6210938,0.375 0.1523437,0.0703125 0.5273437,0.10546875 0.7265625,0.10546875 0.3632812,0 0.6328125,-0.2109375 0.9375,-0.45703125 C 5.365758,-0.75077344 5.5298205,-1.2195234 5.647008,-1.6882734 5.658727,-1.7820234 5.71732,-2.0398359 5.71732,-2.1804609 l -0.1992187,0.046875 c -0.023437,0.1171875 -0.058594,0.3164062 -0.09375,0.4570312 -0.070312,0.3164063 -0.1757813,0.515625 -0.3984375,0.75000001 -0.2109375,0.22265625 -0.421875,0.328125 -0.6914063,0.328125 -0.1875,0 -0.3632812,-0.046875 -0.515625,-0.09375 -0.2460937,-0.0703125 -0.7265625,-0.29296875 -0.890625,-0.43359371 0,0 -0.3398437,-0.2929688 -1.0078125,-0.2929688 l -0.023437,-0.058594 c 0.1640625,-0.070312 0.3632813,-0.2226563 0.5625,-0.4101563 0.1875,-0.1640625 0.3867188,-0.4101562 0.515625,-0.6445312 0.2460938,-0.3984375 0.3867188,-0.703125 0.515625,-1.0546875 0.1523438,-0.375 0.3984375,-0.9257813 0.5625,-1.21875 0.09375,-0.1875 0.1992188,-0.28125 0.375,-0.421875 0.1757813,-0.140625 0.3632813,-0.2226563 0.5390625,-0.2226563 0.1640625,0 0.2578125,0.035156 0.328125,0.140625 0.058594,0.082031 0.1054688,0.2578125 0.070312,0.375 -0.023437,0.09375 -0.058594,0.2226563 -0.023437,0.2695313 0.058594,0.058594 0.140625,0.09375 0.234375,0.09375 0,0 0.3867188,-0.011719 0.5156248,-0.503906 z m 8.6806637,6.0820313 c 0,-0.09375 0,-0.15234379 -0.105468,-0.15234379 -0.09375,0 -0.09375,0.0585938 -0.105469,0.140625 -0.07031,1.19531249 -0.960938,1.88671879 -1.875,1.88671879 -0.515625,0 -2.144531,-0.2929688 -2.144531,-2.77734379 0,-2.50781251 1.628906,-2.78906251 2.132812,-2.78906251 0.914063,0 1.664063,0.7617188 1.828125,1.98046876 0.01172,0.1171875 0.01172,0.140625 0.128906,0.140625 0.140625,0 0.140625,-0.0234375 0.140625,-0.19921875 V -2.7429609 c 0,-0.140625 0,-0.1992188 -0.09375,-0.1992188 -0.03516,0 -0.07031,0 -0.128906,0.09375 l -0.421875,0.6210938 c -0.316406,-0.3046875 -0.738281,-0.7148438 -1.546875,-0.7148438 -1.558594,0 -2.9062499,1.3242188 -2.9062499,3.03515626 0,1.73437504 1.3593749,3.04687504 2.9062499,3.04687504 1.371094,0 2.191406,-1.171875 2.191406,-2.1328125 z m 2.607422,1.9453125 V 2.6945391 c -0.5625,0 -0.65625,0 -0.65625,-0.375 v -5.1796875 l -1.195312,0.09375 v 0.2578125 c 0.585937,0 0.644531,0.058594 0.644531,0.46875 v 4.359375 c 0,0.375 -0.09375,0.375 -0.644531,0.375 v 0.2578125 l 0.925781,-0.023437 z m 0,0"
       style="fill:#67ab9f;fill-opacity:1;fill-rule:nonzero;stroke:none"
       aria-label="â„’&#10;Cl"
       transform="matrix(1.3333333,0,0,1.3333333,460.748,79.544)"
       clip-path="url(#clipPath67)"
       id="path139" />
    <path
       d="m 276.40794,63.55885 h 2.01394 c 7.82785,0 14.17338,-6.34555 14.17338,-14.1734 0,-7.82783 -6.34553,-14.17338 -14.17338,-14.17338 h -17.00811 v 28.34678 z"
       style="fill:none;stroke:#67ab9f;stroke-width:1.19553;stroke-linecap:butt;stroke-linejoin:miter;stroke-miterlimit:10;stroke-dasharray:none;stroke-opacity:1"
       transform="matrix(1.3333333,0,0,-1.3333333,21.365333,88.789333)"
       clip-path="url(#clipPath24)"
       id="path96" />
    <path
       d="m 7.9452422,-2.78775 c 0,-0.1171875 0,-0.1992188 -0.1523438,-0.1992188 -0.1289062,0 -0.1289062,0.070312 -0.140625,0.1875 -0.09375,1.7109375 -1.3710937,2.69531255 -2.6835937,2.69531255 -0.7265625,0 -3.0703125,-0.41015625 -3.0703125,-3.97265625 0,-3.5742188 2.3320312,-3.9726563 3.0585937,-3.9726563 1.3007813,0 2.3671875,1.078125 2.6132813,2.8242188 0.023437,0.1757812 0.023437,0.2109375 0.1875,0.2109375 0.1875,0 0.1875,-0.035156 0.1875,-0.2929688 v -2.8359375 c 0,-0.1992187 0,-0.28125 -0.1289063,-0.28125 -0.046875,0 -0.09375,0 -0.1875,0.140625 l -0.5976562,0.890625 c -0.4453125,-0.4335937 -1.0546875,-1.03125 -2.203125,-1.03125 -2.2382813,0 -4.16015626,1.8984375 -4.16015626,4.3359375 0,2.4726563 1.93359376,4.3476563 4.16015626,4.3476563 1.9453125,0 3.1171875,-1.6523438 3.1171875,-3.046875 z m 3.7324218,2.7890625 v -0.375 c -0.796875,0 -0.925781,0 -0.925781,-0.5390625 v -7.3828125 l -1.7226564,0.1289062 v 0.375 c 0.8320312,0 0.9257812,0.082031 0.9257812,0.6679688 V -0.91275 c 0,0.5390625 -0.1289062,0.5390625 -0.9257812,0.5390625 v 0.375 l 1.3242184,-0.03515625 z m 0,0"
       style="fill:#67ab9f;fill-opacity:1;fill-rule:nonzero;stroke:none"
       aria-label="Cl"
       transform="matrix(1.3333333,0,0,1.3333333,377.004,26.592)"
       clip-path="url(#clipPath25)"
       id="path97" />
    <path
       d="m 6.6089531,-5.5415313 c 0,-0.1171875 -0.1054687,-0.1171875 -0.2460937,-0.1171875 H 1.2183281 c -0.2109375,0 -0.23437498,0 -0.29296873,0.1757813 l -0.52734375,1.4882812 c 0,0.035156 -0.0351563,0.1054688 -0.0351563,0.1523438 0,0.023437 0.0117188,0.1171875 0.140625,0.1171875 0.10546875,0 0.12890625,-0.046875 0.17578125,-0.2109375 C 1.1597344,-5.272 1.4409844,-5.3540313 2.7066094,-5.3540313 h 0.3515625 c 0.2578125,0 0.2578125,0.011719 0.2578125,0.082031 0,0 0,0.046875 -0.023437,0.1757812 l -1.1132813,4.40625005 c -0.070312,0.3046875 -0.09375,0.38671875 -0.9726562,0.38671875 -0.30468753,0 -0.37500003,0 -0.37500003,0.1875 0,0.0234375 0.0117188,0.1171875 0.140625,0.1171875 C 1.2066094,0.0014375 1.4527031,-0.022 1.6870781,-0.022 l 0.7265625,-0.01171875 0.75,0.01171875 c 0.2226563,0.01171875 0.4804688,0.0234375 0.703125,0.0234375 0.070312,0 0.1875,0 0.1875,-0.1875 0,-0.1171875 -0.082031,-0.1171875 -0.3398437,-0.1171875 -0.1640625,0 -0.328125,0 -0.4804688,-0.0117188 -0.2929687,-0.0234375 -0.3046875,-0.0585938 -0.3046875,-0.1640625 0,-0.0585938 0,-0.0703125 0.035156,-0.1875 l 1.1015628,-4.3945312 c 0.058594,-0.2460938 0.070312,-0.2695313 0.2578125,-0.28125 0.046875,-0.011719 0.3398437,-0.011719 0.5039062,-0.011719 0.515625,0 0.7265625,0 0.9375,0.070312 0.375,0.1171875 0.3984375,0.3515625 0.3984375,0.65625 0,0.140625 0,0.2460938 -0.058594,0.6796875 l -0.023437,0.09375 c 0,0.082031 0.058594,0.1289063 0.140625,0.1289063 0.1289062,0 0.140625,-0.082031 0.1640625,-0.2109375 z m 0,0"
       style="fill:#67ab9f;fill-opacity:1;fill-rule:nonzero;stroke:none"
       aria-label="ð‘‡"
       transform="matrix(1.3333333,0,0,1.3333333,393.024,30.529333)"
       clip-path="url(#clipPath26)"
       id="path98" />
    <path
       d="M -0.69189062,-5.0740547 C -1.1606406,-5.4842109 -1.6645469,-5.8357734 -2.2036094,-6.1404609 c -0.5507812,0.3046875 -1.0546875,0.65625 -1.5234375,1.0664062 l 0.09375,0.1640625 c 0.4921875,-0.2109375 0.9609375,-0.4570312 1.4296875,-0.7148437 0.4570313,0.2578125 0.9257813,0.5039062 1.41796878,0.7148437 z m -1.99804688,1.6992188 c 0,-0.1523438 -0.1171875,-0.234375 -0.2460937,-0.234375 -0.082031,0 -0.2109375,0.058594 -0.2929688,0.1757812 -0.011719,0.046875 -0.082031,0.3046875 -0.1171875,0.4570313 l -0.1640625,0.6679687 -0.375,1.50000001 c -0.035156,0.12890625 -0.3984375,0.71484375 -0.9492187,0.71484375 -0.421875,0 -0.515625,-0.36328125 -0.515625,-0.6796875 0,-0.38671876 0.140625,-0.90234376 0.421875,-1.64062496 0.140625,-0.3398438 0.1757812,-0.4335938 0.1757812,-0.5976563 0,-0.375 -0.2695312,-0.6914062 -0.6914062,-0.6914062 -0.796875,0 -1.1015625,1.21875 -1.1015625,1.2890625 0,0.09375 0.09375,0.09375 0.09375,0.09375 0.082031,0 0.09375,-0.023437 0.140625,-0.1523438 0.2226562,-0.7851562 0.5625,-1.0429687 0.84375,-1.0429687 0.070312,0 0.2109375,0 0.2109375,0.2695312 0,0.2109375 -0.082031,0.421875 -0.140625,0.5859375 -0.3398438,0.890625 -0.4921875,1.359375 -0.4921875,1.75781251 0,0.73828125 0.5273437,0.99609375 1.0195312,0.99609375 0.328125,0 0.609375,-0.140625 0.84375,-0.375 -0.1054687,0.43359375 -0.2109375,0.84375 -0.5390625,1.28906254 -0.2226562,0.28125 -0.5390625,0.5273437 -0.9257812,0.5273437 -0.1171875,0 -0.4921875,-0.023437 -0.6328125,-0.3515625 0.140625,0 0.2460937,0 0.3632812,-0.1054687 0.082031,-0.070312 0.1640625,-0.18750004 0.1640625,-0.33984379 0,-0.2578125 -0.2226562,-0.29296875 -0.3046875,-0.29296875 -0.1992187,0 -0.46875,0.12890625 -0.46875,0.5390625 0,0.42187504 0.3632813,0.72656254 0.8789063,0.72656254 0.8671875,0 1.7226562,-0.76171879 1.9570312,-1.69921879 l 0.8085938,-3.19921871 c 0.035156,-0.1171875 0.035156,-0.1289063 0.035156,-0.1875 z M 5.67725,-2.5896797 c 0,-0.1171875 -0.1054687,-0.1171875 -0.2460937,-0.1171875 H 0.286625 c -0.2109375,0 -0.234375,0 -0.29296875,0.1757813 l -0.52734375,1.4882812 c 0,0.035156 -0.0351563,0.10546876 -0.0351563,0.15234376 0,0.0234375 0.0117188,0.1171875 0.140625,0.1171875 0.10546875,0 0.12890625,-0.046875 0.17578125,-0.2109375 0.4804688,-1.33593746 0.7617188,-1.41796876 2.02734385,-1.41796876 h 0.3515625 c 0.2578125,0 0.2578125,0.011719 0.2578125,0.082031 0,0 0,0.046875 -0.023437,0.1757812 L 1.247563,2.2618825 C 1.177251,2.56657 1.153813,2.6486013 0.27490675,2.6486013 c -0.3046875,0 -0.375,0 -0.375,0.1875 0,0.023437 0.01171875,0.1171875 0.140625,0.1171875 0.234375,0 0.48046875,-0.023437 0.71484375,-0.023437 l 0.7265625,-0.011719 0.75,0.011719 c 0.2226563,0.011719 0.4804688,0.023437 0.703125,0.023437 0.070312,0 0.1875,0 0.1875,-0.1875 0,-0.1171875 -0.082031,-0.1171875 -0.3398437,-0.1171875 -0.1640625,0 -0.328125,0 -0.4804688,-0.011719 C 2.0092818,2.6134453 1.997563,2.5782883 1.997563,2.4728198 c 0,-0.058594 0,-0.070312 0.035156,-0.1875 l 1.1015625,-4.3945312 c 0.058594,-0.2460938 0.070312,-0.2695313 0.2578125,-0.28125 0.046875,-0.011719 0.3398437,-0.011719 0.5039062,-0.011719 0.515625,0 0.7265625,0 0.9375,0.070312 0.375,0.1171875 0.3984375,0.3515625 0.3984375,0.65625 0,0.140625 0,0.2460938 -0.058594,0.67968751 l -0.023437,0.09375 c 0,0.0820313 0.058594,0.12890625 0.140625,0.12890625 0.1289062,0 0.140625,-0.0820313 0.1640625,-0.2109375 z m 0,0"
       style="fill:#67ab9f;fill-opacity:1;fill-rule:nonzero;stroke:none"
       aria-label="Ì‚ð‘¦&#10;ð‘‡"
       transform="matrix(1.3333333,0,0,1.3333333,439.80533,26.824)"
       clip-path="url(#clipPath27)"
       id="path99" />
    <path
       d="m 4.1002109,-3.3749297 c 0,-0.1523437 -0.1171875,-0.234375 -0.2460937,-0.234375 -0.082031,0 -0.2109375,0.058594 -0.2929688,0.1757813 -0.011719,0.046875 -0.082031,0.3046875 -0.1171875,0.4570312 l -0.1640625,0.6679688 -0.375,1.49999996 c -0.035156,0.12890625 -0.3984375,0.71484375 -0.9492187,0.71484375 -0.421875,0 -0.515625,-0.36328125 -0.515625,-0.6796875 0,-0.38671871 0.140625,-0.90234371 0.421875,-1.64062501 0.140625,-0.3398437 0.1757812,-0.4335937 0.1757812,-0.5976562 0,-0.375 -0.2695312,-0.6914063 -0.6914062,-0.6914063 -0.79687501,0 -1.10156251,1.21875 -1.10156251,1.2890625 0,0.09375 0.09375,0.09375 0.09375,0.09375 0.0820313,0 0.09375,-0.023437 0.140625,-0.1523437 0.22265625,-0.7851563 0.56250001,-1.0429688 0.84375001,-1.0429688 0.070312,0 0.2109375,0 0.2109375,0.2695313 0,0.2109375 -0.082031,0.421875 -0.140625,0.5859375 -0.3398438,0.890625 -0.49218751,1.359375 -0.49218751,1.75781246 0,0.73828125 0.52734371,0.99609375 1.01953121,0.99609375 0.328125,0 0.609375,-0.140625 0.84375,-0.375 -0.1054687,0.43359375 -0.2109375,0.84375 -0.5390625,1.28906249 -0.2226562,0.28125 -0.5390625,0.5273438 -0.9257812,0.5273438 -0.1171875,0 -0.49218751,-0.023437 -0.63281251,-0.3515625 0.140625,0 0.24609375,0 0.36328121,-0.1054688 0.082031,-0.070312 0.1640625,-0.18749999 0.1640625,-0.33984374 0,-0.2578125 -0.22265621,-0.29296875 -0.30468746,-0.29296875 -0.19921875,0 -0.46875,0.12890625 -0.46875,0.5390625 0,0.42187499 0.36328125,0.72656249 0.87890626,0.72656249 0.8671875,0 1.7226562,-0.76171874 1.9570312,-1.69921874 L 4.0650547,-3.1874297 c 0.035156,-0.1171875 0.035156,-0.1289062 0.035156,-0.1875 z m 8.3671871,0.7851563 c 0,-0.1171875 -0.105468,-0.1171875 -0.246093,-0.1171875 H 7.0767734 c -0.2109375,0 -0.234375,0 -0.2929687,0.1757812 l -0.5273438,1.4882813 c 0,0.035156 -0.035156,0.10546871 -0.035156,0.15234371 0,0.0234375 0.011719,0.1171875 0.140625,0.1171875 0.1054687,0 0.1289062,-0.046875 0.1757812,-0.2109375 C 7.0181797,-2.3202422 7.2994297,-2.4022734 8.5650547,-2.4022734 h 0.3515625 c 0.2578125,0 0.2578125,0.011719 0.2578125,0.082031 0,0 0,0.046875 -0.023437,0.1757813 l -1.1132813,4.40625 c -0.070312,0.3046875 -0.09375,0.3867187 -0.9726562,0.3867187 -0.3046875,0 -0.375,0 -0.375,0.1875 0,0.023437 0.011719,0.1171875 0.140625,0.1171875 0.234375,0 0.4804687,-0.023437 0.7148437,-0.023437 l 0.7265625,-0.011719 0.75,0.011719 c 0.2226563,0.011719 0.4804688,0.023437 0.703125,0.023437 0.070312,0 0.1875,0 0.1875,-0.1875 0,-0.1171875 -0.082031,-0.1171875 -0.3398437,-0.1171875 -0.1640625,0 -0.328125,0 -0.4804688,-0.011719 -0.2929687,-0.023437 -0.3046875,-0.058594 -0.3046875,-0.1640625 0,-0.058594 0,-0.070312 0.035156,-0.1875 l 1.1015625,-4.3945313 c 0.058594,-0.2460937 0.070312,-0.2695312 0.2578121,-0.28125 0.04687,-0.011719 0.339844,-0.011719 0.503906,-0.011719 0.515625,0 0.726563,0 0.9375,0.070312 0.375,0.1171875 0.398438,0.3515625 0.398438,0.65625 0,0.140625 0,0.2460937 -0.05859,0.67968746 l -0.02344,0.09375 c 0,0.0820313 0.05859,0.12890625 0.140625,0.12890625 0.128906,0 0.140625,-0.0820313 0.164062,-0.2109375 z m 0,0"
       style="fill:#67ab9f;fill-opacity:1;fill-rule:nonzero;stroke:none"
       aria-label="ð‘¦&#10;ð‘‡"
       transform="matrix(1.3333333,0,0,1.3333333,504.02133,24.496)"
       clip-path="url(#clipPath28)"
       id="path100" />
    <path
       d="m 232.21423,3.8e-4 h 11.33872 v 49.38507 h 14.07498"
       style="fill:none;stroke:#67ab9f;stroke-width:1.19553;stroke-linecap:butt;stroke-linejoin:miter;stroke-miterlimit:10;stroke-dasharray:none;stroke-opacity:1"
       transform="matrix(1.3333333,0,0,-1.3333333,21.365333,88.789333)"
       clip-path="url(#clipPath56)"
       id="path128" />
    <path
       d="M 3.18808,0 -1.91284,2.55046 0,0 -1.91284,-2.55046"
       style="fill:#67ab9f;fill-opacity:1;fill-rule:nonzero;stroke:none"
       transform="matrix(1.3333333,0,0,-1.3333333,364.86924,22.942067)"
       clip-path="url(#clipPath57)"
       id="path129" />
    <path
       d="m 293.19302,49.38545 h 10.06052"
       style="fill:none;stroke:#67ab9f;stroke-width:1.19553;stroke-linecap:butt;stroke-linejoin:miter;stroke-miterlimit:10;stroke-dasharray:none;stroke-opacity:1"
       transform="matrix(1.3333333,0,0,-1.3333333,21.365333,88.789333)"
       clip-path="url(#clipPath60)"
       id="path132" />
    <path
       d="M 3.18808,0 -1.91284,2.55046 0,0 -1.91284,-2.55046"
       style="fill:#67ab9f;fill-opacity:1;fill-rule:nonzero;stroke:none"
       transform="matrix(1.3333333,0,0,-1.3333333,425.70339,22.942067)"
       clip-path="url(#clipPath61)"
       id="path133" />
    <path
       d="m 324.02707,49.38545 h 34.17938"
       style="fill:none;stroke:#67ab9f;stroke-width:1.19553;stroke-linecap:butt;stroke-linejoin:miter;stroke-miterlimit:10;stroke-dasharray:2.98883, 2.98883;stroke-dashoffset:0;stroke-opacity:1;fill-opacity:1"
       transform="matrix(1.3333333,0,0,-1.3333333,21.365333,88.789333)"
       clip-path="url(#clipPath68)"
       id="path140" />
    <path
       d="M 3.18808,0 -1.91284,2.55046 0,0 -1.91284,-2.55046"
       style="fill:#67ab9f;fill-opacity:1;fill-rule:nonzero;stroke:none"
       transform="matrix(-1.3333333,0,0,1.3333333,453.40143,22.942067)"
       clip-path="url(#clipPath69)"
       id="path141" />
    <path
       d="M 3.18808,0 -1.91284,2.55046 0,0 -1.91284,-2.55046"
       style="fill:#67ab9f;fill-opacity:1;fill-rule:nonzero;stroke:none"
       transform="matrix(1.3333333,0,0,-1.3333333,498.97393,22.942067)"
       clip-path="url(#clipPath70)"
       id="path142" />
    <path
       d="m 4.3471484,-3.6341172 c 0.035156,-0.1171875 0.011719,-0.2226562 -0.046875,-0.3046875 -0.09375,-0.1171875 -0.2578125,-0.1523437 -0.4453125,-0.1523437 -0.3046875,0 -0.6445312,0.082031 -0.9257812,0.3046875 -0.1992188,0.1523437 -0.3984375,0.3515625 -0.5390625,0.5625 -0.1875,0.2578125 -0.28125,0.5273437 -0.3984375,0.8085937 -0.1523438,0.421875 -0.4453125,1.0429688 -0.6796875,1.2304688 -0.1054688,0.082031 -0.2460938,0.1757812 -0.35156251,0.23437496 -0.0820313,0.0585938 -0.2578125,0.15234375 -0.33984375,0.2578125 -0.19921875,0.234375 -0.31640625,0.43359375 -0.38671875,0.62109375 l 0.10546875,0.10546875 c 0.0820313,-0.1640625 0.2109375,-0.3515625 0.3515625,-0.515625 0.09375,-0.10546875 0.31640626,-0.2109375 0.45703126,-0.2109375 0.1523437,0 0.4335937,0.12890625 0.7617187,0.38671875 0.1289063,0.12890625 0.2226563,0.17578125 0.4335938,0.26953125 0.1171875,0.05859375 0.3867187,0.08203125 0.5273437,0.08203125 0.2578125,0 0.4570313,-0.15234375 0.6679688,-0.328125 0.2929687,-0.24609375 0.4101562,-0.5859375 0.4921875,-0.92578121 0.011719,-0.070312 0.058594,-0.2460938 0.058594,-0.3515625 l -0.1523437,0.035156 c -0.011719,0.082031 -0.035156,0.2226563 -0.058594,0.328125 -0.058594,0.22265626 -0.1289062,0.36328126 -0.28125,0.52734376 -0.1640625,0.1640625 -0.3046875,0.234375 -0.5039062,0.234375 -0.1289063,0 -0.2578125,-0.0234375 -0.3632813,-0.0585938 -0.1757812,-0.046875 -0.515625,-0.2109375 -0.6445312,-0.3046875 0,0 -0.234375,-0.22265616 -0.7148438,-0.22265616 l -0.011719,-0.035156 c 0.1054687,-0.046875 0.2578125,-0.1640625 0.3984375,-0.2929688 0.1289062,-0.1171874 0.28125,-0.2929687 0.375,-0.4687499 0.1640625,-0.2695314 0.2695312,-0.4921876 0.3632812,-0.7382814 0.1054688,-0.2695312 0.28125,-0.6679687 0.3984375,-0.8789062 0.070312,-0.1289063 0.140625,-0.1992188 0.2695313,-0.3046875 0.1289062,-0.09375 0.2578125,-0.1523438 0.3867187,-0.1523438 0.1171875,0 0.1757813,0.023437 0.234375,0.09375 0.035156,0.070312 0.070312,0.1875 0.046875,0.2695313 -0.011719,0.070312 -0.035156,0.1640625 -0.011719,0.1875 0.035156,0.058594 0.09375,0.082031 0.1640625,0.082031 0,0 0.28125,-0.011719 0.3632817,-0.3749998 z m 8.8300786,5.1914063 c 0,-0.058594 0,-0.09375 -0.07031,-0.09375 -0.07031,0 -0.07031,0.035156 -0.08203,0.09375 -0.04687,0.8554687 -0.679688,1.3359375 -1.335938,1.3359375 -0.363281,0 -1.535156,-0.1992188 -1.535156,-1.98046879 0,-1.78125 1.171875,-1.99218751 1.535156,-1.99218751 0.644532,0 1.183594,0.55078126 1.300782,1.41796876 0.01172,0.0820313 0.01172,0.10546875 0.09375,0.10546875 0.09375,0 0.09375,-0.0234375 0.09375,-0.140625 V -1.1145859 c 0,-0.1054688 0,-0.1523438 -0.05859,-0.1523438 -0.03516,0 -0.05859,0 -0.105469,0.082031 l -0.292969,0.43359371 C 12.497547,-0.96224249 12.19286,-1.26693 11.618641,-1.26693 c -1.113281,0 -2.0742189,0.96093751 -2.0742189,2.17968751 0,1.23046879 0.9609379,2.16796879 2.0742189,2.16796879 0.972656,0 1.558594,-0.8320313 1.558594,-1.5234375 z m 3.594726,1.3945312 v -0.1875 c -0.398437,0 -0.46875,0 -0.46875,-0.2695312 v -3.6914063 l -0.855469,0.070312 v 0.17578126 c 0.421875,0 0.46875,0.046875 0.46875,0.33984375 V 2.4947891 c 0,0.2695312 -0.07031,0.2695312 -0.46875,0.2695312 v 0.1875 l 0.65625,-0.023437 z m 6.386719,-1.8691406 c 0,-0.09375 -0.09375,-0.09375 -0.199219,-0.09375 h -4.195312 c -0.152344,0 -0.152344,0 -0.199219,0.1171875 l -0.398438,1.1015625 c -0.01172,0.011719 -0.03516,0.1054687 -0.03516,0.1054687 0,0.035156 0.02344,0.1054688 0.128906,0.1054688 0.09375,0 0.09375,-0.023437 0.152344,-0.1640625 0.269531,-0.7148438 0.445313,-0.9960938 1.253906,-0.9960938 h 0.644532 c 0.04687,0 0.128906,0 0.1875,0.011719 v 0.035156 l -0.796875,3.1992188 c -0.04687,0.1875 -0.07031,0.2460937 -0.691407,0.2460937 h -0.128906 c -0.128906,0 -0.140625,0.011719 -0.164062,0.035156 -0.03516,0.023437 -0.05859,0.09375 -0.05859,0.1289062 0,0.035156 0.02344,0.1054688 0.117187,0.1054688 0.1875,0 0.375,-0.023437 0.550782,-0.023437 h 1.136718 c 0.1875,0 0.375,0.023437 0.550782,0.023437 0.04687,0 0.152343,0 0.152343,-0.1640625 0,-0.1054688 -0.08203,-0.1054688 -0.1875,-0.1054688 h -0.128906 c -0.152344,0 -0.316406,0 -0.46875,-0.023437 -0.04687,-0.011719 -0.09375,-0.023437 -0.09375,-0.082031 0,-0.035156 0,-0.046875 0.03516,-0.1289063 l 0.761719,-3.0585937 c 0.04687,-0.1875 0.04687,-0.1992188 0.304688,-0.1992188 h 0.632812 c 0.667969,0 0.761719,0.1875 0.761719,0.5507813 0,0.046875 0,0.1523437 -0.04687,0.4453125 v 0.046875 c 0,0.070312 0.03516,0.1171875 0.117187,0.1171875 0.117188,0 0.128907,-0.058594 0.140625,-0.1640625 l 0.152344,-1.0664063 c 0.01172,-0.070312 0.01172,-0.082031 0.01172,-0.1054687 z m 0,0"
       style="fill:#67ab9f;fill-opacity:1;fill-rule:nonzero;stroke:none"
       aria-label="â„’&#10;Cl&#10;ð‘‡"
       transform="matrix(1.3333333,0,0,1.3333333,459.97333,11.185333)"
       clip-path="url(#clipPath71)"
       id="path143" />
    <path
       d="m 232.21423,3.8e-4 h 11.33872 v -43.7157 h 13.77914"
       style="fill:none;stroke:#7ea6e0;stroke-width:1.19553;stroke-linecap:butt;stroke-linejoin:miter;stroke-miterlimit:10;stroke-dasharray:none;stroke-opacity:1"
       transform="matrix(1.3333333,0,0,-1.302803,21.365333,90.142223)"
       clip-path="url(#clipPath52)"
       id="path124" />
    <path
       d="m 276.40794,-35.21127 h 1.71806 c 7.82786,0 14.17341,-6.34555 14.17341,-14.1734 0,-7.82784 -6.34555,-14.17339 -14.17341,-14.17339 h -17.00806 v 28.34679 z"
       style="fill:none;stroke:#7ea6e0;stroke-width:1.19553;stroke-linecap:butt;stroke-linejoin:miter;stroke-miterlimit:10;stroke-dasharray:none;stroke-opacity:1"
       transform="matrix(1.3333333,0,0,-1.3333333,21.365333,88.789333)"
       clip-path="url(#clipPath19)"
       id="path93" />
    <path
       d="m 9.6083828,-5.1449375 c 0,-1.6757813 -1.0195312,-3.0234375 -2.8125,-3.0234375 H 2.7880703 c -0.234375,0 -0.3632812,0 -0.3632812,0.234375 0,0.140625 0.1054687,0.140625 0.3515625,0.140625 0.1523437,0 0.3632812,0.011719 0.515625,0.023437 0.1875,0.023437 0.2578125,0.058594 0.2578125,0.1875 0,0.046875 -0.011719,0.082031 -0.046875,0.234375 l -1.6054688,6.41015625 c -0.1171875,0.46875 -0.140625,0.5625 -1.08984374,0.5625 -0.19921875,0 -0.328125,0 -0.328125,0.234375 0,0.140625 0.10546875,0.140625 0.328125,0.140625 H 4.7685391 c 2.484375,0 4.8398437,-2.51953125 4.8398437,-5.14453075 z M 8.5654141,-5.5785313 c 0,0.5859375 -0.234375,2.5429688 -1.2539063,3.8554688 -0.3398437,0.4453125 -1.2890625,1.34765625 -2.7539062,1.34765625 h -1.359375 c -0.1640625,0 -0.1875,0 -0.2578125,-0.0117188 -0.1171875,-0.0117188 -0.1523438,-0.0234375 -0.1523438,-0.1171875 0,-0.0351563 0,-0.0585938 0.058594,-0.26953125 l 1.6406248,-6.5625 C 4.5927578,-7.7582188 4.6161953,-7.793375 5.1318203,-7.793375 h 1.2773438 c 1.171875,0 2.15625,0.6328125 2.15625,2.2148437 z m 0,0"
       style="fill:#7ea6e0;fill-opacity:1;fill-rule:nonzero;stroke:none"
       aria-label="ð·"
       transform="matrix(1.3333333,0,0,1.3333333,383.27867,160.07867)"
       clip-path="url(#clipPath20)"
       id="path94" />
    <path
       d="m 5.0169297,-4.2541719 c 0,-0.5390625 -0.5039063,-1.03125 -1.4179688,-1.03125 -1.5820312,0 -2.015625,1.21875 -2.015625,1.7460938 0,0.9375 0.8789063,1.1132812 1.2304688,1.1835937 0.6210937,0.1171875 1.2421875,0.2460938 1.2421875,0.9140625 0,0.3046875 -0.28125,1.31250002 -1.7109375,1.31250002 -0.1640625,0 -1.0898438,0 -1.35937501,-0.6328125 0.44531251,0.0585938 0.75000001,-0.30468752 0.75000001,-0.63281252 0,-0.28125 -0.1875,-0.421875 -0.4453125,-0.421875 -0.30468751,0 -0.66796876,0.2460938 -0.66796876,0.7851563 0,0.67968747 0.67968746,1.16015622 1.71093746,1.16015622 1.9335938,0 2.4023438,-1.44140622 2.4023438,-1.98046872 0,-0.4335938 -0.2226563,-0.7265625 -0.375,-0.8789063 -0.3164063,-0.328125 -0.6679688,-0.3867187 -1.1953125,-0.4921875 -0.421875,-0.1054687 -0.9023438,-0.1875 -0.9023438,-0.7265625 0,-0.3398437 0.28125,-1.0664062 1.3359375,-1.0664062 0.3046875,0 0.9023438,0.082031 1.078125,0.5507812 -0.3398437,0.011719 -0.5742187,0.2695313 -0.5742187,0.5273438 0,0.1757812 0.1054687,0.3515625 0.3632812,0.3515625 0.2695313,0 0.5507813,-0.1992188 0.5507813,-0.6679688 z m 0,0"
       style="fill:#7ea6e0;fill-opacity:1;fill-rule:nonzero;stroke:none"
       aria-label="ð‘ "
       transform="matrix(1.3333333,0,0,1.3333333,435.81467,158.07067)"
       clip-path="url(#clipPath21)"
       id="path95" />
    <text
       xml:space="preserve"
       transform="matrix(1.3333333,0,0,1.3333333,508.26533,150.784)"
       clip-path="url(#clipPath22)"
       id="text95"
       style="fill:#7ea6e0;fill-opacity:1"><tspan
         style="font-variant:normal;font-weight:normal;font-size:11.9552px;font-family:'Open Sans';writing-mode:lr-tb;fill:#7ea6e0;fill-opacity:1;fill-rule:nonzero;stroke:none"
         x="0"
         y="0"
         id="tspan95">0</tspan></text>
    <text
       xml:space="preserve"
       transform="matrix(1.3333333,0,0,1.3333333,508.26533,170.04533)"
       clip-path="url(#clipPath23)"
       id="text96"
       style="fill:#7ea6e0;fill-opacity:1"><tspan
         style="font-variant:normal;font-weight:normal;font-size:11.9552px;font-family:'Open Sans';writing-mode:lr-tb;fill:#7ea6e0;fill-opacity:1;fill-rule:nonzero;stroke:none"
         x="0"
         y="0"
         id="tspan96">1</tspan></text>
    <path
       d="m 231.61433,-34.35149 h -30.06634 v -30.06636 h 30.06634 z"
       style="fill:#ffffff;fill-opacity:0.5;fill-rule:nonzero;stroke:#000000;stroke-width:1.19553;stroke-linecap:butt;stroke-linejoin:miter;stroke-miterlimit:10;stroke-dasharray:none;stroke-opacity:0.5"
       transform="matrix(1.3333333,0,0,-1.3333333,12.83472,80.25872)"
       clip-path="url(#clipPath29)"
       id="path101" />
    <path
       d="m 231.61433,-34.35149 h -30.06634 v -30.06636 h 30.06634 z"
       style="fill:#ffffff;fill-opacity:0.5;fill-rule:nonzero;stroke:#000000;stroke-width:1.19553;stroke-linecap:butt;stroke-linejoin:miter;stroke-miterlimit:10;stroke-dasharray:none;stroke-opacity:0.5"
       transform="matrix(1.3333333,0,0,-1.3333333,17.10004,84.52404)"
       clip-path="url(#clipPath30)"
       id="path102" />
    <path
       d="m 231.61433,-34.35149 h -30.06634 v -30.06636 h 30.06634 z"
       style="fill:#ffffff;fill-opacity:1;fill-rule:nonzero;stroke:#000000;stroke-width:1.19553;stroke-linecap:butt;stroke-linejoin:miter;stroke-miterlimit:10;stroke-dasharray:none;stroke-opacity:1"
       transform="matrix(1.3333333,0,0,-1.3333333,21.365333,88.789333)"
       clip-path="url(#clipPath31)"
       id="path103" />
    <path
       d="m 9.9026172,-7.6517891 c 0.046875,-0.1640625 0.011719,-0.3164062 -0.09375,-0.4453125 -0.140625,-0.1875 -0.3867188,-0.2578125 -0.65625,-0.2578125 -0.421875,0 -0.8554688,0.1992188 -1.2304688,0.5039063 -0.3867187,0.3046875 -0.7265625,0.703125 -1.03125,1.0898437 -0.3515625,0.421875 -0.9257812,1.1835938 -1.0429687,1.4765625 0.058594,-0.5742187 0.082031,-1.1953125 0.035156,-1.7695312 -0.035156,-0.3632813 -0.070312,-0.7382813 -0.2695312,-0.9960938 -0.234375,-0.3164062 -0.65625,-0.3867187 -1.0664063,-0.3867187 -0.5859375,0 -1.1367187,0.140625 -1.6640625,0.5625 -0.3515625,0.2695312 -0.6328125,0.6445312 -0.7265625,1.03125 -0.046875,0.2109375 -0.1171875,0.4570312 0,0.6210937 0.070312,0.070312 0.140625,0.1289063 0.2578125,0.1289063 0.1289063,0 0.2109375,-0.023437 0.328125,-0.1054688 0.1054688,-0.09375 0.2460938,-0.2460937 0.2695313,-0.3515625 0.046875,-0.1640625 -0.011719,-0.3046875 -0.011719,-0.46875 0,-0.1054687 0.023437,-0.2109375 0.058594,-0.328125 0.035156,-0.1757812 0.140625,-0.3046875 0.3164062,-0.421875 0.2460938,-0.1757812 0.46875,-0.234375 0.75,-0.234375 0.2226563,0 0.46875,0.023437 0.5859375,0.1992188 0.1171875,0.140625 0.2109375,0.328125 0.2460938,0.5390625 0.058594,0.2695312 0.09375,0.5742187 0.1054687,0.8671875 0.046875,0.9257812 -0.070312,1.7929687 -0.1757812,2.7421875 -0.3398438,0.5976562 -0.7265625,1.2070312 -1.1484375,1.7695312 -0.3046875,0.4101563 -0.6328125,0.7851563 -1.03125,1.11328129 -0.2578125,0.19921875 -0.5390625,0.328125 -0.84375,0.328125 -0.1289063,0 -0.2460938,-0.0351563 -0.3164063,-0.12890625 -0.070312,-0.0820313 -0.082031,-0.1640625 -0.082031,-0.26953125 0.011719,-0.15234375 -0.011719,-0.29296879 -0.09375,-0.38671879 -0.058594,-0.082031 -0.1640625,-0.1171875 -0.28125,-0.1171875 -0.12890626,0 -0.28125001,0.09375 -0.39843751,0.1875 -0.1171875,0.09375 -0.15234375,0.22265629 -0.1875,0.36328129 -0.0585937,0.234375 -0.0234375,0.4453125 0.10546875,0.62109375 0.15234375,0.19921875 0.42187496,0.28125 0.70312496,0.28125 0.5625,0 1.125,-0.22265625 1.6171875,-0.62109375 0.7617188,-0.60937499 1.2890625,-1.40624999 1.78125,-2.21484379 0,0.5507813 0.011719,1.1132813 0.09375,1.640625 0.035156,0.32812504 0.082031,0.64453129 0.2578125,0.90234379 0.1757813,0.22265625 0.4921875,0.29296875 0.8203125,0.29296875 0.3984375,0 0.8085938,-0.1875 1.1601563,-0.46875 0.515625,-0.41015625 0.9023437,-0.91406254 1.0546875,-1.51171874 l -0.2578125,-0.046875 c -0.1523438,0.421875 -0.3984375,0.8203125 -0.7734375,1.13671874 -0.1757813,0.140625 -0.3984375,0.28125 -0.609375,0.28125 -0.1992188,0 -0.3867188,-0.0351563 -0.4921875,-0.1640625 C 5.7190234,-1.0306953 5.5783984,-1.4994453 5.5549609,-1.9564766 c -0.058594,-0.75 0.011719,-1.3945312 0.082031,-2.15625 0.328125,-0.703125 0.703125,-1.3359375 1.1484375,-1.9921875 0.3398437,-0.4804687 0.6914062,-0.984375 1.1601562,-1.3476562 0.1875,-0.1523438 0.4101563,-0.2460938 0.6210938,-0.2460938 0.1523437,0 0.28125,0.046875 0.3515625,0.1523438 0.046875,0.058594 0.082031,0.1289062 0.09375,0.1992187 0.011719,0.070312 0.035156,0.140625 0.070312,0.1992188 0.035156,0.058594 0.1171875,0.070312 0.2109375,0.070312 0.1289062,0 0.28125,-0.1171875 0.3984375,-0.2109375 0.1171875,-0.09375 0.1757812,-0.234375 0.2109383,-0.3632808 z m 0,0"
       style="fill:#000000;fill-opacity:1;fill-rule:nonzero;stroke:none"
       aria-label="ð’³"
       transform="matrix(1.3333333,0,0,1.3333333,303.20667,160.19067)"
       clip-path="url(#clipPath32)"
       id="path104" />
    <path
       d="M 3.18808,0 -1.91284,2.55046 0,0 -1.91284,-2.55046"
       style="fill:#7ea6e0;fill-opacity:1;fill-rule:nonzero;stroke:none"
       transform="matrix(1.3333333,0,0,-1.3333333,364.47479,147.07643)"
       clip-path="url(#clipPath53)"
       id="path125" />
    <path
       d="m 232.21544,-55.05338 25.11665,-6.4e-4"
       style="fill:none;stroke:#000000;stroke-width:1.19553;stroke-linecap:butt;stroke-linejoin:miter;stroke-miterlimit:10;stroke-dasharray:none;stroke-opacity:1"
       transform="matrix(1.3333333,0,0,-1.3333333,21.365333,88.789333)"
       clip-path="url(#clipPath54)"
       id="path126" />
    <path
       d="M 3.18808,0 -1.91284,2.55046 0,0 -1.91284,-2.55046"
       style="fill:#000000;fill-opacity:1;fill-rule:nonzero;stroke:none"
       transform="matrix(1.3333333,0,0,-1.3333333,364.47479,162.19469)"
       clip-path="url(#clipPath55)"
       id="path127" />
    <path
       d="m 292.89717,-49.38467 h 14.15378"
       style="fill:none;stroke:#7ea6e0;stroke-width:1.19553;stroke-linecap:butt;stroke-linejoin:miter;stroke-miterlimit:10;stroke-dasharray:none;stroke-opacity:1"
       transform="matrix(1.3333333,0,0,-1.3333333,21.365333,88.789333)"
       clip-path="url(#clipPath62)"
       id="path134" />
    <path
       d="M 3.18808,0 -1.91284,2.55046 0,0 -1.91284,-2.55046"
       style="fill:#7ea6e0;fill-opacity:1;fill-rule:nonzero;stroke:none"
       transform="matrix(1.3333333,0,0,-1.3333333,430.7666,154.63556)"
       clip-path="url(#clipPath63)"
       id="path135" />
    <path
       d="M 320.22966,-49.38467 H 361.3895"
       style="fill:none;stroke:#7ea6e0;stroke-width:1.19553;stroke-linecap:butt;stroke-linejoin:miter;stroke-miterlimit:10;stroke-dasharray:2.98883, 2.98883;stroke-dashoffset:0;stroke-opacity:1"
       transform="matrix(1.3333333,0,0,-1.3333333,21.365333,88.789333)"
       clip-path="url(#clipPath72)"
       id="path144" />
    <path
       d="M 3.18808,0 -1.91284,2.55046 0,0 -1.91284,-2.55046"
       style="fill:#7ea6e0;fill-opacity:1;fill-rule:nonzero;stroke:none"
       transform="matrix(-1.3333333,0,0,1.3333333,448.33821,154.63556)"
       clip-path="url(#clipPath73)"
       id="path145" />
    <path
       d="M 3.18808,0 -1.91284,2.55046 0,0 -1.91284,-2.55046"
       style="fill:#7ea6e0;fill-opacity:1;fill-rule:nonzero;stroke:none"
       transform="matrix(1.3333333,0,0,-1.3333333,503.218,154.63556)"
       clip-path="url(#clipPath74)"
       id="path146" />
    <path
       d="m 8.7063516,-7.2533984 c 0.058594,-0.2460938 0.023437,-0.46875 -0.1171875,-0.6210938 -0.1757813,-0.2460937 -0.4921875,-0.3164062 -0.8671875,-0.3164062 -0.6210938,0 -1.3007813,0.1875 -1.8632813,0.609375 -0.4101562,0.3164062 -0.796875,0.7265625 -1.078125,1.125 -0.375,0.5273437 -0.5742187,1.0664062 -0.7851562,1.640625 -0.328125,0.8320312 -0.9023438,2.0625 -1.3828125,2.4375 -0.2109375,0.1640625 -0.4804688,0.3632812 -0.6914063,0.4804687 -0.1640625,0.1054688 -0.515625,0.3046875 -0.6796875,0.515625 -0.39843749,0.45703126 -0.63281249,0.85546876 -0.76171874,1.25390626 l 0.1875,0.19921875 c 0.17578125,-0.31640625 0.43359374,-0.69140625 0.71484374,-1.03125 0.1992188,-0.22265621 0.6328125,-0.41015621 0.9140625,-0.41015621 0.3046875,0 0.8671875,0.2460937 1.5234375,0.76171871 0.2578125,0.24609375 0.4335938,0.36328125 0.8789063,0.5390625 0.2226562,0.10546875 0.7617187,0.15234375 1.0546875,0.15234375 0.5039062,0 0.890625,-0.29296875 1.3242187,-0.65625 0.5859375,-0.49218746 0.8203125,-1.17187496 0.9960938,-1.83984376 0.023437,-0.1289062 0.1054687,-0.4921875 0.1054687,-0.6914062 l -0.3046875,0.058594 c -0.023437,0.1640625 -0.070312,0.4570313 -0.1171875,0.65625 -0.1054687,0.4570313 -0.2460937,0.7265625 -0.5742187,1.0664063 -0.3046875,0.3164062 -0.5976563,0.46874996 -0.9960938,0.46874996 -0.2578125,0 -0.5039062,-0.0703125 -0.7382812,-0.140625 -0.3398438,-0.09375 -1.03125,-0.39843746 -1.265625,-0.60937496 0,0 -0.4921875,-0.421875 -1.4414063,-0.421875 l -0.023437,-0.082031 c 0.2226563,-0.1054687 0.5039063,-0.3164062 0.796875,-0.5859375 0.2578125,-0.234375 0.5625,-0.5742187 0.7382813,-0.9257812 0.3515625,-0.5625 0.5507812,-0.9960938 0.7382812,-1.5 0.2226563,-0.5273438 0.5625,-1.3242188 0.796875,-1.734375 0.140625,-0.28125 0.28125,-0.4101563 0.5507813,-0.6210938 0.2460937,-0.1992187 0.5039062,-0.3046875 0.7617187,-0.3046875 0.2226563,0 0.3515625,0.046875 0.46875,0.1875 0.082031,0.140625 0.140625,0.375 0.1054688,0.5390625 -0.035156,0.1289063 -0.082031,0.328125 -0.035156,0.3867188 0.070312,0.09375 0.1875,0.140625 0.328125,0.140625 0,0 0.5507813,-0.011719 0.7382813,-0.7265625 z m 0,0"
       style="fill:#7ea6e0;fill-opacity:1;fill-rule:nonzero;stroke:none"
       aria-label="â„’"
       transform="matrix(1.3333333,0,0,1.3333333,452.372,145.52667)"
       clip-path="url(#clipPath75)"
       id="path147" />
    <text
       xml:space="preserve"
       transform="matrix(1.3333333,0,0,1.3333333,464.64667,149.464)"
       clip-path="url(#clipPath76)"
       id="text147"
       style="fill:#7ea6e0;fill-opacity:1"><tspan
         style="font-variant:normal;font-weight:normal;font-size:8.3686px;font-family:'Open Sans';writing-mode:lr-tb;fill:#7ea6e0;fill-opacity:1;fill-rule:nonzero;stroke:none"
         x="0 7.7242179 13.80819 19.097145"
         y="0"
         sodipodi:role="line"
         id="tspan147">WGAN</tspan></text>
  </g>
</svg>
