<?xml version="1.0" encoding="UTF-8" standalone="no"?>
<!-- Created with Inkscape (http://www.inkscape.org/) -->

<svg
   version="1.1"
   id="svg2"
   xml:space="preserve"
   width="760"
   height="196"
   viewBox="0 0 760 196"
   sodipodi:docname="LOGO_SANOFI.svg"
   inkscape:version="1.1.2 (0a00cf5339, 2022-02-04)"
   xmlns:inkscape="http://www.inkscape.org/namespaces/inkscape"
   xmlns:sodipodi="http://sodipodi.sourceforge.net/DTD/sodipodi-0.dtd"
   xmlns="http://www.w3.org/2000/svg"
   xmlns:svg="http://www.w3.org/2000/svg"><defs
     id="defs6" /><sodipodi:namedview
     id="namedview4"
     pagecolor="#ffffff"
     bordercolor="#666666"
     borderopacity="1.0"
     inkscape:pageshadow="2"
     inkscape:pageopacity="0.0"
     inkscape:pagecheckerboard="0"
     showgrid="false"
     inkscape:zoom="0.66989064"
     inkscape:cx="393.34779"
     inkscape:cy="156.742"
     inkscape:window-width="1920"
     inkscape:window-height="1163"
     inkscape:window-x="1920"
     inkscape:window-y="0"
     inkscape:window-maximized="1"
     inkscape:current-layer="g8" /><g
     id="g8"
     inkscape:groupmode="layer"
     inkscape:label="ink_ext_XXXXXX"
     transform="matrix(1.3333333,0,0,-1.3333333,0,196)"><g
       id="g10"
       transform="scale(0.1)"><path
         d="m 1805.98,328.52 c 0,-30.899 -16.49,-45.321 -51.53,-55.629 -45.35,-12.34 -84.49,-18.551 -140.11,-18.551 -131.88,0 -255.47,78.32 -255.47,288.469 0,210.16 123.59,288.48 255.47,288.48 55.62,0 94.76,-6.211 140.11,-18.559 35.04,-10.308 51.53,-24.718 51.53,-55.621 z m 216.32,673.78 c -135.97,51.49 -263.75,76.22 -405.89,76.22 -311.14,0 -529.53,-208.09 -529.53,-535.711 0,-331.719 189.57,-535.69962 525.39,-535.69962 136.01,0 267.89,22.66012 410.03,82.42192 32.97,14.4177 51.53,37.0707 51.53,82.4177 v 747.93 c 0,47.391 -18.56,70.043 -51.53,82.421"
         style="fill:#040606;fill-opacity:1;fill-rule:nonzero;stroke:none"
         id="path12" /><path
         d="m 287.422,734.41 c 0,63.09 63.867,103.051 173.09,103.051 105.078,0 206.047,-35.039 311.129,-92.731 10.269,-6.179 20.589,-8.25 30.898,-8.25 18.551,0 36.172,11.758 45.313,28.872 l 63.91,135.976 c 5.937,12.652 8.199,24.723 8.199,35.043 0,16.481 -8.59,31.789 -24.691,41.207 C 767.5,1051.76 615.039,1086.76 468.75,1086.76 192.66,1086.76 15.4688,938.398 15.4688,715.898 15.4688,279.059 678.91,448.16 678.91,145.16 c 0,-30.898 -4.109,-49.4608 -12.351,-76.2498 -1.25,-3.9883 -2.071,-8.25 -2.071,-12.3516 0,-16.4805 10.313,-28.8594 30.903,-28.8594 H 880.82 c 30.942,0 43.282,10.3125 53.59,41.211 12.352,35.0388 16.488,82.4178 16.488,117.4608 0,467.688 -663.476,355.109 -663.476,548.039"
         style="fill:#040606;fill-opacity:1;fill-rule:nonzero;stroke:none"
         id="path14" /><path
         d="m 2790.86,1078.52 c -121.56,0 -263.75,-20.59 -414.14,-74.18 -28.87,-10.281 -51.52,-35 -51.52,-82.43 V 68.9102 c 0,-24.7305 16.48,-41.211 41.21,-41.211 h 185.43 c 24.72,0 41.21,16.4805 41.21,41.211 V 761.211 c 0,30.898 16.48,45.348 49.45,53.59 53.55,12.347 88.59,16.488 152.46,16.488 111.25,0 199.88,-51.519 199.88,-175.16 V 68.9102 c 0,-24.7305 16.49,-41.211 41.21,-41.211 h 185.43 c 24.73,0 41.22,16.4805 41.22,41.211 V 691.172 c 0,251.367 -154.54,387.348 -471.84,387.348"
         style="fill:#040606;fill-opacity:1;fill-rule:nonzero;stroke:none"
         id="path16" /><path
         d="m 3985.9,254.34 c -152.46,0 -253.44,98.898 -253.44,288.469 0,189.57 100.98,288.48 239.02,288.48 152.47,0 253.4,-98.91 253.4,-288.48 0,-189.571 -100.93,-288.469 -238.98,-288.469 z m -14.42,824.18 c -309.06,0 -511.01,-224.571 -511.01,-535.711 0,-311.129 201.95,-535.69962 525.43,-535.69962 309.06,0 510.98,224.57062 510.98,535.69962 0,311.14 -201.92,535.711 -525.4,535.711"
         style="fill:#040606;fill-opacity:1;fill-rule:nonzero;stroke:none"
         id="path18" /><path
         d="M 5644.53,1057.93 H 5459.1 c -24.72,0 -41.21,-16.48 -41.21,-41.21 V 68.9102 c 0,-24.7305 16.49,-41.211 41.21,-41.211 h 185.43 c 24.73,0 41.21,16.4805 41.21,41.211 V 1016.72 c 0,24.73 -16.48,41.21 -41.21,41.21"
         style="fill:#040606;fill-opacity:1;fill-rule:nonzero;stroke:none"
         id="path20" /><path
         d="m 5248.95,1455.59 c -41.22,10.31 -85.9,14.41 -129.81,14.41 -255.51,0 -422.38,-135.98 -422.38,-432.7 V 68.9102 c 0,-24.7305 16.44,-41.211 41.21,-41.211 h 183.36 c 24.72,0 41.21,16.4805 41.21,41.211 V 831.289 h 261.68 c 26.76,0 41.21,16.481 41.21,41.172 v 142.189 c 0,26.8 -14.45,43.28 -41.21,43.28 h -261.68 v 22.66 c 0,113.32 49.45,171.01 162.77,171.01 41.21,0 85.59,-10.31 100.98,-10.31 24.69,0 35,14.41 39.14,39.14 l 20.59,107.15 c 1.83,9.53 4.14,17.85 4.14,26.8 0,22.89 -12.39,35.03 -41.21,41.21"
         style="fill:#040606;fill-opacity:1;fill-rule:nonzero;stroke:none"
         id="path22" /><path
         d="M 140.121,291.449 C 55.6211,291.449 0,237.852 0,149.262 0,62.7305 55.6211,7.10938 146.289,7.10938 c 84.492,0 140.121,55.62112 140.121,142.15262 0,88.59 -55.629,142.187 -146.289,142.187"
         style="fill:#5042a2;fill-opacity:1;fill-rule:nonzero;stroke:none"
         id="path24" /><path
         d="m 5548.71,1469.61 c -84.45,0 -140.08,-53.56 -140.08,-142.15 0,-86.56 55.63,-142.19 146.29,-142.19 84.46,0 140.08,55.63 140.08,142.19 0,88.59 -55.62,142.15 -146.29,142.15"
         style="fill:#5042a2;fill-opacity:1;fill-rule:nonzero;stroke:none"
         id="path26" /></g></g></svg>
