<?xml version="1.0" encoding="UTF-8" standalone="no"?>
<!-- Created with Inkscape (http://www.inkscape.org/) -->

<svg
   version="1.1"
   id="svg2"
   xml:space="preserve"
   width="348.48279"
   height="337.52798"
   viewBox="0 0 348.48279 337.52798"
   sodipodi:docname="gene_expression.svg"
   inkscape:version="1.1.2 (0a00cf5339, 2022-02-04)"
   xmlns:inkscape="http://www.inkscape.org/namespaces/inkscape"
   xmlns:sodipodi="http://sodipodi.sourceforge.net/DTD/sodipodi-0.dtd"
   xmlns="http://www.w3.org/2000/svg"
   xmlns:svg="http://www.w3.org/2000/svg"><defs
     id="defs6"><clipPath
       clipPathUnits="userSpaceOnUse"
       id="clipPath18"><path
         d="M 0,783 H 603 V 0 H 0 Z"
         id="path16" /></clipPath><clipPath
       clipPathUnits="userSpaceOnUse"
       id="clipPath36"><path
         d="M 0,783 H 603 V 0 H 0 Z"
         id="path34" /></clipPath><clipPath
       clipPathUnits="userSpaceOnUse"
       id="clipPath202"><path
         d="m 84.928,428.102 h 482 v 286.866 h -482 z"
         id="path200" /></clipPath><clipPath
       clipPathUnits="userSpaceOnUse"
       id="clipPath266"><path
         d="m 84.928,428.102 h 482 v 286.866 h -482 z"
         id="path264" /></clipPath><clipPath
       clipPathUnits="userSpaceOnUse"
       id="clipPath296"><path
         d="m 84.928,428.102 h 482 v 286.866 h -482 z"
         id="path294" /></clipPath><clipPath
       clipPathUnits="userSpaceOnUse"
       id="clipPath350"><path
         d="m 84.928,428.102 h 482 v 286.866 h -482 z"
         id="path348" /></clipPath><clipPath
       clipPathUnits="userSpaceOnUse"
       id="clipPath374"><path
         d="m 84.928,428.102 h 482 v 286.866 h -482 z"
         id="path372" /></clipPath><clipPath
       clipPathUnits="userSpaceOnUse"
       id="clipPath400"><path
         d="m 84.928,428.102 h 482 v 286.866 h -482 z"
         id="path398" /></clipPath><clipPath
       clipPathUnits="userSpaceOnUse"
       id="clipPath432"><path
         d="m 84.928,428.102 h 482 v 286.866 h -482 z"
         id="path430" /></clipPath></defs><sodipodi:namedview
     id="namedview4"
     pagecolor="#ffffff"
     bordercolor="#666666"
     borderopacity="1.0"
     inkscape:pageshadow="2"
     inkscape:pageopacity="0.0"
     inkscape:pagecheckerboard="0"
     showgrid="false"
     inkscape:zoom="1.3773946"
     inkscape:cx="139.0306"
     inkscape:cy="162.98887"
     inkscape:window-width="1920"
     inkscape:window-height="1136"
     inkscape:window-x="0"
     inkscape:window-y="27"
     inkscape:window-maximized="1"
     inkscape:current-layer="g28" /><g
     id="g8"
     inkscape:groupmode="layer"
     inkscape:label="gene_expression"
     transform="matrix(1.3333333,0,0,-1.3333333,-131.68213,923.59691)"><g
       id="g10"><g
         id="g12"><g
           id="g14"
           clip-path="url(#clipPath18)"><g
             id="g20"><g
               id="g22" /></g></g></g><g
         id="g28"><g
           id="g30"><g
             id="g32"
             clip-path="url(#clipPath36)"><g
               id="g38"><g
                 id="g40" /></g></g></g><g
           id="g196"><g
             id="g198"
             clip-path="url(#clipPath202)"><g
               id="g204"
               transform="translate(258.7206,439.5517)"><path
                 d="m 0,0 c 50.096,0 90.708,40.612 90.708,90.709 v 71.729 c 0,50.096 -40.612,90.708 -90.708,90.708 h -69.25 c -50.096,0 -90.709,-40.612 -90.709,-90.708 V 90.709 C -159.959,40.612 -119.346,0 -69.25,0 Z"
                 style="fill:#d1d8d0;fill-opacity:1;fill-rule:nonzero;stroke:none"
                 id="path206" /></g><g
               id="g208"
               transform="translate(260.9156,516.3547)"><path
                 d="m 0,0 c 35.223,0 63.779,31.728 63.779,70.865 v 8.612 c 0,39.138 -28.556,70.866 -63.779,70.866 h -74.04 c -35.223,0 -63.78,-31.728 -63.78,-70.866 V 70.865 C -137.82,31.728 -109.263,0 -74.04,0 Z"
                 style="fill:#ffffff;fill-opacity:1;fill-rule:nonzero;stroke:none"
                 id="path210" /></g><g
               id="g212"
               transform="translate(213.4266,541.9077)"><path
                 d="m 0,0 c -2.27,0 -4.11,-1.84 -4.11,-4.11 0,-2.269 1.84,-4.109 4.11,-4.109 2.27,0 4.11,1.84 4.11,4.109 C 4.11,-1.84 2.27,0 0,0"
                 style="fill:#009a68;fill-opacity:1;fill-rule:nonzero;stroke:none"
                 id="path214" /></g><g
               id="g216"
               transform="translate(213.4266,541.9077)"><path
                 d="m 0,0 c -2.27,0 -4.11,-1.84 -4.11,-4.11 0,-2.269 1.84,-4.109 4.11,-4.109 2.27,0 4.11,1.84 4.11,4.109 C 4.11,-1.84 2.27,0 0,0 Z"
                 style="fill:none;stroke:#009a68;stroke-width:0.5;stroke-linecap:butt;stroke-linejoin:miter;stroke-miterlimit:4;stroke-dasharray:none;stroke-opacity:1"
                 id="path218" /></g><g
               id="g220"
               transform="translate(156.7621,616.8022)"><path
                 d="M 0,0 V -4.25 H 134.062 V 0 m 20.969,-63.395 h 4.25 v 28.062 h -4.25"
                 style="fill:none;stroke:#231f20;stroke-width:0.5;stroke-linecap:butt;stroke-linejoin:miter;stroke-miterlimit:4;stroke-dasharray:none;stroke-opacity:1"
                 id="path222" /></g><g
               id="g224"
               transform="translate(235.5386,609.5217)"><path
                 d="M 0,0 V -11.505"
                 style="fill:none;stroke:#231f20;stroke-width:1;stroke-linecap:butt;stroke-linejoin:miter;stroke-miterlimit:4;stroke-dasharray:none;stroke-opacity:1"
                 id="path226" /></g><g
               id="g228"
               transform="translate(233.7386,598.5937)"><path
                 d="M 0,0 1.773,-5.041 3.514,0.007 Z"
                 style="fill:#231f20;fill-opacity:1;fill-rule:nonzero;stroke:none"
                 id="path230" /></g><g
               id="g232"
               transform="translate(235.5386,580.6477)"><path
                 d="M 0,0 V -31.003"
                 style="fill:none;stroke:#231f20;stroke-width:1;stroke-linecap:butt;stroke-linejoin:miter;stroke-miterlimit:4;stroke-dasharray:none;stroke-opacity:1"
                 id="path234" /></g><g
               id="g236"
               transform="translate(233.7386,550.2207)"><path
                 d="M 0,0 1.773,-5.041 3.514,0.008 Z"
                 style="fill:#231f20;fill-opacity:1;fill-rule:nonzero;stroke:none"
                 id="path238" /></g><g
               id="g240"
               transform="translate(235.5386,494.6567)"><path
                 d="M 0,0 V -11.504"
                 style="fill:none;stroke:#231f20;stroke-width:1;stroke-linecap:butt;stroke-linejoin:miter;stroke-miterlimit:4;stroke-dasharray:none;stroke-opacity:1"
                 id="path242" /></g><g
               id="g244"
               transform="translate(233.7386,483.7287)"><path
                 d="M 0,0 1.773,-5.041 3.514,0.008 Z"
                 style="fill:#231f20;fill-opacity:1;fill-rule:nonzero;stroke:none"
                 id="path246" /></g><g
               id="g248"
               transform="translate(235.5386,531.3547)"><path
                 d="M 0,0 V -20.41"
                 style="fill:none;stroke:#231f20;stroke-width:1;stroke-linecap:butt;stroke-linejoin:miter;stroke-miterlimit:4;stroke-dasharray:none;stroke-opacity:1"
                 id="path250" /></g><g
               id="g252"
               transform="translate(233.7386,511.5207)"><path
                 d="m 0,0 1.773,-5.042 1.741,5.05 z"
                 style="fill:#231f20;fill-opacity:1;fill-rule:nonzero;stroke:none"
                 id="path254" /></g></g></g><text
           transform="matrix(1,0,0,-1,258.4266,535.2917)"
           style="font-variant:normal;font-weight:normal;font-stretch:normal;font-size:7px;font-family:'Frutiger LT Std';-inkscape-font-specification:FrutigerLTStd-Roman;writing-mode:lr-tb;fill:#231f20;fill-opacity:1;fill-rule:nonzero;stroke:none"
           id="text258"><tspan
             x="0 5.0539999 10.108 15.162"
             y="0"
             sodipodi:role="line"
             id="tspan256">AAAA</tspan></text><g
           id="g260"><g
             id="g262"
             clip-path="url(#clipPath266)"><g
               id="g268"
               transform="translate(213.4266,503.6367)"><path
                 d="m 0,0 c -2.27,0 -4.11,-1.839 -4.11,-4.109 0,-2.271 1.84,-4.111 4.11,-4.111 2.27,0 4.11,1.84 4.11,4.111 C 4.11,-1.839 2.27,0 0,0"
                 style="fill:#009a68;fill-opacity:1;fill-rule:nonzero;stroke:none"
                 id="path270" /></g><g
               id="g272"
               transform="translate(213.4266,503.6367)"><path
                 d="m 0,0 c -2.27,0 -4.11,-1.839 -4.11,-4.109 0,-2.271 1.84,-4.111 4.11,-4.111 2.27,0 4.11,1.84 4.11,4.111 C 4.11,-1.839 2.27,0 0,0 Z"
                 style="fill:none;stroke:#009a68;stroke-width:0.5;stroke-linecap:butt;stroke-linejoin:miter;stroke-miterlimit:4;stroke-dasharray:none;stroke-opacity:1"
                 id="path274" /></g></g></g><text
           transform="matrix(1,0,0,-1,258.4266,497.0197)"
           style="font-variant:normal;font-weight:normal;font-stretch:normal;font-size:7px;font-family:'Frutiger LT Std';-inkscape-font-specification:FrutigerLTStd-Roman;writing-mode:lr-tb;fill:#231f20;fill-opacity:1;fill-rule:nonzero;stroke:none"
           id="text288"><tspan
             x="0 5.0539999 10.108 15.162"
             y="0"
             sodipodi:role="line"
             id="tspan276">AAAA</tspan><tspan
             x="-50.000999 -46.893002 -43.393002 -40.669998 -36.393002 -32.116001 -30.17 -26.278 -23.555"
             y="-176.008"
             sodipodi:role="line"
             id="tspan278">cytoplasm</tspan><tspan
             x="-45.002998 -40.726002 -36.449001 -33.341 -31.395 -27.503 -23.226"
             y="-158.011"
             sodipodi:role="line"
             id="tspan280">nucleus</tspan><tspan
             x="-122.5 -118.608 -114.331 -111.608 -109.662 -103.439 -99.546997 -96.823997 -93.323997 -91.377998 -87.100998 -82.046997 -76.992996 -75.046997 -72.323997 -69.600998 -65.709 -61.431999 -58.709 -55.601002 -52.877998 -50.931999 -46.654999 -43.931999"
             y="-97.530998"
             sodipodi:role="line"
             id="tspan282">“primary RNA transcript”</tspan><tspan
             x="-119.497 -114.443 -109.389"
             y="-135.69501"
             sodipodi:role="line"
             id="tspan284">DNA</tspan><tspan
             x="-77 -75.054001 -70.777 -68.054001 -65.331001 -61.054001 -56.777 -10.332 -6.4400001 -2.9400001 1.337 5.6139998"
             y="-145.194"
             sodipodi:role="line"
             id="tspan286">intronsexons</tspan></text><g
           id="g290"><g
             id="g292"
             clip-path="url(#clipPath296)"><g
               id="g298"
               transform="translate(177.9286,629.7187)"><path
                 d="M 0,0 15,11 25.833,0.083 M 63.75,0 78.75,11 89.583,0.083"
                 style="fill:none;stroke:#231f20;stroke-width:0.3;stroke-linecap:butt;stroke-linejoin:miter;stroke-miterlimit:4;stroke-dasharray:none;stroke-opacity:1"
                 id="path300" /></g></g></g><text
           transform="matrix(1,0,0,-1,169.2987,605.5518)"
           style="font-variant:normal;font-weight:normal;font-stretch:normal;font-size:7px;font-family:'Frutiger LT Std';-inkscape-font-specification:FrutigerLTStd-Roman;writing-mode:lr-tb;fill:#231f20;fill-opacity:1;fill-rule:nonzero;stroke:none"
           id="text312"><tspan
             x="0 2.723 5.4460001 9.3380003 13.615 16.337999 19.445999 22.169001 24.115 28.392 31.115 33.061001 37.338001 41.615002 43.561001 47.838001 52.115002 54.061001"
             y="0"
             sodipodi:role="line"
             id="tspan302">transcription unit</tspan><tspan
             x="69.860001 73.751999 78.028999 83.083 88.137001 91.637001 95.914001 100.191 102.137 106.029 109.921 111.867 117.313"
             y="5.9990001"
             sodipodi:role="line"
             id="tspan304">TRANSCRIPTION</tspan><tspan
             x="69.860001 73.751999 78.028999 83.083 88.137001 91.637001 95.137001 99.672997 103.565 105.511 110.957"
             y="122.864"
             sodipodi:role="line"
             id="tspan306">TRANSLATION</tspan><tspan
             x="69.860001 73.751999 78.420998 82.313004 87.759003 91.910004"
             y="84.195999"
             sodipodi:role="line"
             id="tspan308">EXPORT</tspan><tspan
             x="69.860001"
             y="31.332001"
             id="tspan310">5</tspan></text><text
           transform="matrix(1,0,0,-1,243.0496,574.2187)"
           style="font-variant:normal;font-weight:normal;font-stretch:normal;font-size:8px;font-family:'Times New Roman PS MT';-inkscape-font-specification:TimesNewRomanPSMT;writing-mode:lr-tb;fill:#231f20;fill-opacity:1;fill-rule:nonzero;stroke:none"
           id="text316"><tspan
             x="0"
             y="0"
             id="tspan314">′</tspan></text><text
           transform="matrix(1,0,0,-1,246.7456,574.2187)"
           style="font-variant:normal;font-weight:normal;font-stretch:normal;font-size:7px;font-family:'Frutiger LT Std';-inkscape-font-specification:FrutigerLTStd-Roman;writing-mode:lr-tb;fill:#231f20;fill-opacity:1;fill-rule:nonzero;stroke:none"
           id="text324"><tspan
             x="0 4.277 9.3310003 13.223 17.115 19.061001 24.115"
             y="0"
             sodipodi:role="line"
             id="tspan318">CAPPING</tspan><tspan
             x="-7.5879998 -3.3110001 1.743 6.7969999 8.743 12.243 16.135 19.635 21.580999 25.858 27.804001 32.858002"
             y="9.0019999"
             sodipodi:role="line"
             id="tspan320">RNA SPLICING</tspan><tspan
             x="-7.5879998"
             y="18.004"
             id="tspan322">3</tspan></text><text
           transform="matrix(1,0,0,-1,243.0496,556.2187)"
           style="font-variant:normal;font-weight:normal;font-stretch:normal;font-size:8px;font-family:'Times New Roman PS MT';-inkscape-font-specification:TimesNewRomanPSMT;writing-mode:lr-tb;fill:#231f20;fill-opacity:1;fill-rule:nonzero;stroke:none"
           id="text328"><tspan
             x="0"
             y="0"
             id="tspan326">′</tspan></text><text
           transform="matrix(1,0,0,-1,246.7456,556.2187)"
           style="font-variant:normal;font-weight:normal;font-stretch:normal;font-size:7px;font-family:'Frutiger LT Std';-inkscape-font-specification:FrutigerLTStd-Roman;writing-mode:lr-tb;fill:#231f20;fill-opacity:1;fill-rule:nonzero;stroke:none"
           id="text342"><tspan
             x="0 3.892 9.3380003 12.194 16.478001 21.532 26.586 30.478001 35.532001 40.201 43.701 48.237 52.129002 54.075001 59.521"
             y="0"
             sodipodi:role="line"
             id="tspan330">POLYADENYLATION</tspan><tspan
             x="72.744003 77.021004 82.074997"
             y="-13.335"
             sodipodi:role="line"
             id="tspan332">RNA</tspan><tspan
             x="72.744003 76.636002 80.913002 86.359001 90.636002 94.528 98.028 101.528 103.474 108.528"
             y="-4.3330002"
             sodipodi:role="line"
             id="tspan334">PROCESSING</tspan><tspan
             x="-61.655998 -55.432999 -51.155998 -46.102001"
             y="21.195999"
             sodipodi:role="line"
             id="tspan336">mRNA</tspan><tspan
             x="-61.655998 -55.432999 -51.155998 -46.102001"
             y="59.528"
             sodipodi:role="line"
             id="tspan338">mRNA</tspan><tspan
             x="-61.655998 -57.379002 -54.655998 -50.379002 -47.655998 -43.764 -41.818001"
             y="86.527"
             sodipodi:role="line"
             id="tspan340">protein</tspan></text><text
           transform="matrix(1,0,0,-1,190.1556,551.3907)"
           style="font-variant:normal;font-weight:normal;font-stretch:normal;font-size:7px;font-family:'Frutiger LT Std';-inkscape-font-specification:FrutigerLTStd-Roman;writing-mode:lr-tb;fill:#231f20;fill-opacity:1;fill-rule:nonzero;stroke:none"
           id="text424"><tspan
             x="0 4.277 9.3310003 14.385 16.330999 19.438999 23.330999"
             y="0"
             sodipodi:role="line"
             id="tspan422">RNA cap</tspan></text><g
           id="g434"
           transform="translate(211.6526,542.3137)"><path
             d="M 0,0 -3.344,7.644"
             style="fill:none;stroke:#231f20;stroke-width:0.3;stroke-linecap:butt;stroke-linejoin:miter;stroke-miterlimit:4;stroke-dasharray:none;stroke-opacity:1"
             id="path436" /></g><g
           id="g438"
           transform="translate(312.6156,623.2065)"><path
             d="m 0,0 h -174.667 l -0.019,-1.258 v -2.151 l 0.019,-1.258 H 0 l 0.001,1.258 v 2.151 z"
             style="fill:#8e928d;fill-opacity:1;fill-rule:nonzero;stroke:none"
             id="path440" /></g><g
           id="g442"
           transform="translate(186.4326,623.1938)"><path
             d="m 0,0 h -19.879 l 0.01,-1.258 v -2.109 l -0.01,-1.258 H 0 l -0.036,1.258 v 2.109 z"
             style="fill:#f9b274;fill-opacity:1;fill-rule:nonzero;stroke:none"
             id="path444" /></g><g
           id="g446"
           transform="translate(216.4326,623.1938)"><path
             d="m 0,0 h -25.191 l 0.01,-1.258 v -2.109 l -0.01,-1.258 H 0 l -0.036,1.258 v 2.109 z"
             style="fill:#f9b274;fill-opacity:1;fill-rule:nonzero;stroke:none"
             id="path448" /></g><g
           id="g450"
           transform="translate(239.4326,623.1938)"><path
             d="m 0,0 h -11.129 l 0.01,-1.258 v -2.109 l -0.01,-1.258 H 0 l -0.036,1.258 v 2.109 z"
             style="fill:#f9b274;fill-opacity:1;fill-rule:nonzero;stroke:none"
             id="path452" /></g><g
           id="g454"
           transform="translate(263.4956,623.1938)"><path
             d="m 0,0 h -20.067 l 0.01,-1.258 v -2.109 l -0.01,-1.258 H 0 l -0.036,1.258 v 2.109 z"
             style="fill:#f9b274;fill-opacity:1;fill-rule:nonzero;stroke:none"
             id="path456" /></g><g
           id="g458"
           transform="translate(283.8347,621.936)"><path
             d="M 0,0 0.036,1.258 H -9.656 L -9.646,0 v -2.109 l -0.01,-1.258 H 0.036 L 0,-2.109 Z"
             style="fill:#f9b274;fill-opacity:1;fill-rule:nonzero;stroke:none"
             id="path460" /></g><g
           id="g462"
           transform="translate(166.5502,623.1948)"><path
             d="m 0,0 h -9.062 l 0.018,-1.258 V -3.367 L -9.062,-4.625 H 0 l -0.007,1.258 v 2.109 z"
             style="fill:#ba944f;fill-opacity:1;fill-rule:nonzero;stroke:none"
             id="path464" /></g><g
           id="g466"
           transform="translate(191.2376,623.1948)"><path
             d="m 0,0 h -4.871 l 0.018,-1.258 V -3.367 L -4.871,-4.625 H 0 l -0.007,1.258 v 2.109 z"
             style="fill:#ba944f;fill-opacity:1;fill-rule:nonzero;stroke:none"
             id="path468" /></g><g
           id="g470"
           transform="translate(228.3006,623.1948)"><path
             d="m 0,0 h -11.934 l 0.019,-1.258 v -2.109 l -0.019,-1.258 H 0 l -0.007,1.258 v 2.109 z"
             style="fill:#ba944f;fill-opacity:1;fill-rule:nonzero;stroke:none"
             id="path472" /></g><g
           id="g474"
           transform="translate(243.4256,623.1948)"><path
             d="M 0,0 H -4.059 L -4.04,-1.258 V -3.367 L -4.059,-4.625 H 0 l -0.007,1.258 v 2.109 z"
             style="fill:#ba944f;fill-opacity:1;fill-rule:nonzero;stroke:none"
             id="path476" /></g><g
           id="g478"
           transform="translate(274.1756,623.1948)"><path
             d="m 0,0 h -10.747 l 0.019,-1.258 v -2.109 l -0.019,-1.258 H 0 l -0.007,1.258 v 2.109 z"
             style="fill:#ba944f;fill-opacity:1;fill-rule:nonzero;stroke:none"
             id="path480" /></g><g
           id="g482"
           transform="translate(290.6726,621.937)"><path
             d="M 0,0 0.006,1.258 H -6.869 L -6.85,0 V -2.109 L -6.869,-3.367 H 0.006 L 0,-2.109 Z"
             style="fill:#ba944f;fill-opacity:1;fill-rule:nonzero;stroke:none"
             id="path484" /></g><g
           id="g486"
           transform="translate(312.6156,629.873)"><path
             d="m 0,0 h -174.667 l -0.019,-1.258 v -2.151 l 0.019,-1.258 H 0 l 0.001,1.258 v 2.151 z"
             style="fill:#8e928d;fill-opacity:1;fill-rule:nonzero;stroke:none"
             id="path488" /></g><g
           id="g490"
           transform="translate(186.4326,629.8604)"><path
             d="m 0,0 h -19.879 l 0.01,-1.258 v -2.109 l -0.01,-1.258 H 0 l -0.036,1.258 v 2.109 z"
             style="fill:#f9b274;fill-opacity:1;fill-rule:nonzero;stroke:none"
             id="path492" /></g><g
           id="g494"
           transform="translate(216.4326,629.8604)"><path
             d="m 0,0 h -25.191 l 0.01,-1.258 v -2.109 l -0.01,-1.258 H 0 l -0.036,1.258 v 2.109 z"
             style="fill:#f9b274;fill-opacity:1;fill-rule:nonzero;stroke:none"
             id="path496" /></g><g
           id="g498"
           transform="translate(239.4326,629.8604)"><path
             d="m 0,0 h -11.129 l 0.01,-1.258 v -2.109 l -0.01,-1.258 H 0 l -0.036,1.258 v 2.109 z"
             style="fill:#f9b274;fill-opacity:1;fill-rule:nonzero;stroke:none"
             id="path500" /></g><g
           id="g502"
           transform="translate(263.4956,629.8604)"><path
             d="m 0,0 h -20.067 l 0.01,-1.258 v -2.109 l -0.01,-1.258 H 0 l -0.036,1.258 v 2.109 z"
             style="fill:#f9b274;fill-opacity:1;fill-rule:nonzero;stroke:none"
             id="path504" /></g><g
           id="g506"
           transform="translate(283.8347,628.6025)"><path
             d="M 0,0 0.036,1.258 H -9.656 L -9.646,0 v -2.109 l -0.01,-1.258 H 0.036 L 0,-2.109 Z"
             style="fill:#f9b274;fill-opacity:1;fill-rule:nonzero;stroke:none"
             id="path508" /></g><g
           id="g510"
           transform="translate(166.5502,629.8613)"><path
             d="m 0,0 h -9.062 l 0.018,-1.258 V -3.367 L -9.062,-4.625 H 0 l -0.007,1.258 v 2.109 z"
             style="fill:#ba944f;fill-opacity:1;fill-rule:nonzero;stroke:none"
             id="path512" /></g><g
           id="g514"
           transform="translate(191.2376,629.8613)"><path
             d="m 0,0 h -4.871 l 0.018,-1.258 V -3.367 L -4.871,-4.625 H 0 l -0.007,1.258 v 2.109 z"
             style="fill:#ba944f;fill-opacity:1;fill-rule:nonzero;stroke:none"
             id="path516" /></g><g
           id="g518"
           transform="translate(228.3006,629.8613)"><path
             d="m 0,0 h -11.934 l 0.019,-1.258 v -2.109 l -0.019,-1.258 H 0 l -0.007,1.258 v 2.109 z"
             style="fill:#ba944f;fill-opacity:1;fill-rule:nonzero;stroke:none"
             id="path520" /></g><g
           id="g522"
           transform="translate(243.4256,629.8613)"><path
             d="M 0,0 H -4.059 L -4.04,-1.258 V -3.367 L -4.059,-4.625 H 0 l -0.007,1.258 v 2.109 z"
             style="fill:#ba944f;fill-opacity:1;fill-rule:nonzero;stroke:none"
             id="path524" /></g><g
           id="g526"
           transform="translate(274.1756,629.8613)"><path
             d="m 0,0 h -10.747 l 0.019,-1.258 v -2.109 l -0.019,-1.258 H 0 l -0.007,1.258 v 2.109 z"
             style="fill:#ba944f;fill-opacity:1;fill-rule:nonzero;stroke:none"
             id="path528" /></g><g
           id="g530"
           transform="translate(290.6726,628.6035)"><path
             d="M 0,0 0.006,1.258 H -6.869 L -6.85,0 V -2.109 L -6.869,-3.367 H 0.006 L 0,-2.109 Z"
             style="fill:#ba944f;fill-opacity:1;fill-rule:nonzero;stroke:none"
             id="path532" /></g><g
           id="g560"
           transform="translate(186.4286,590.5617)"><path
             d="m 0,0 h -19.989 l -0.01,-1.258 v -2.109 l 0.01,-1.258 H 0 l -0.01,1.258 v 2.109 z"
             style="fill:#fee103;fill-opacity:1;fill-rule:nonzero;stroke:none"
             id="path562" /></g><g
           id="g564"
           transform="translate(216.3036,590.5617)"><path
             d="M 0,0 H -24.989 L -25,-1.258 v -2.109 l 0.011,-1.258 H 0 l -0.01,1.258 v 2.109 z"
             style="fill:#fee103;fill-opacity:1;fill-rule:nonzero;stroke:none"
             id="path566" /></g><g
           id="g568"
           transform="translate(239.4917,590.5617)"><path
             d="m 0,0 h -11.302 l -0.011,-1.258 v -2.109 l 0.011,-1.258 H 0 l -0.011,1.258 v 2.109 z"
             style="fill:#fee103;fill-opacity:1;fill-rule:nonzero;stroke:none"
             id="path570" /></g><g
           id="g572"
           transform="translate(263.4286,590.5617)"><path
             d="M 0,0 H -19.989 L -20,-1.258 v -2.109 l 0.011,-1.258 H 0 l -0.01,1.258 v 2.109 z"
             style="fill:#fee103;fill-opacity:1;fill-rule:nonzero;stroke:none"
             id="path574" /></g><g
           id="g576"
           transform="translate(283.8557,589.3037)"><path
             d="M 0,0 0.011,1.258 H -9.666 L -9.677,0 v -2.109 l 0.011,-1.258 H 0.011 L 0,-2.109 Z"
             style="fill:#fee103;fill-opacity:1;fill-rule:nonzero;stroke:none"
             id="path578" /></g><g
           id="g580"
           transform="translate(166.4227,590.5627)"><path
             d="M 0,0 H -9.062 V -4.625 H 0 l -0.009,1.258 v 2.109 z"
             style="fill:#00adef;fill-opacity:1;fill-rule:nonzero;stroke:none"
             id="path582" /></g><g
           id="g584"
           transform="translate(191.3667,590.5627)"><path
             d="m 0,0 h -4.955 l -0.009,-1.258 v -2.109 l 0.009,-1.258 H 0 l -0.009,1.258 v 2.109 z"
             style="fill:#00adef;fill-opacity:1;fill-rule:nonzero;stroke:none"
             id="path586" /></g><g
           id="g588"
           transform="translate(228.2417,590.5627)"><path
             d="m 0,0 h -11.955 l -0.009,-1.258 v -2.109 l 0.009,-1.258 H 0 l -0.009,1.258 v 2.109 z"
             style="fill:#00adef;fill-opacity:1;fill-rule:nonzero;stroke:none"
             id="path590" /></g><g
           id="g592"
           transform="translate(243.4916,590.5627)"><path
             d="m 0,0 h -4.017 l -0.009,-1.258 v -2.109 l 0.009,-1.258 H 0 l -0.009,1.258 v 2.109 z"
             style="fill:#00adef;fill-opacity:1;fill-rule:nonzero;stroke:none"
             id="path594" /></g><g
           id="g596"
           transform="translate(274.2416,590.5627)"><path
             d="m 0,0 h -10.83 l -0.009,-1.258 v -2.109 l 0.009,-1.258 H 0 l -0.009,1.258 v 2.109 z"
             style="fill:#00adef;fill-opacity:1;fill-rule:nonzero;stroke:none"
             id="path598" /></g><g
           id="g600"
           transform="translate(283.7737,590.5537)"><path
             d="M 0,0 -0.001,-1.258 V -3.367 L 0,-4.625 H 6.968 V 0 Z"
             style="fill:#00adef;fill-opacity:1;fill-rule:nonzero;stroke:none"
             id="path602" /></g><path
           d="m 215.357,535.466 h 41.431 v 4.625 h -41.431 z"
           style="fill:#00adef;fill-opacity:1;fill-rule:nonzero;stroke:none"
           id="path604" /><path
           d="m 215.357,497.299 h 41.431 v 4.625 h -41.431 z"
           style="fill:#00adef;fill-opacity:1;fill-rule:nonzero;stroke:none"
           id="path606" /><path
           d="m 214.44,469.55 h 42.281 v 4.625 H 214.44 Z"
           style="fill:#99d64b;fill-opacity:1;fill-rule:nonzero;stroke:none"
           id="path608" /><text
           transform="matrix(1,0,0,-1,208.3086,526.7587)"
           style="font-variant:normal;font-weight:normal;font-stretch:normal;font-size:7px;font-family:'Frutiger LT Std';-inkscape-font-specification:FrutigerLTStd-Roman;writing-mode:lr-tb;fill:#231f20;fill-opacity:1;fill-rule:nonzero;stroke:none"
           id="text616"><tspan
             x="0"
             y="0"
             id="tspan614">5</tspan></text><text
           transform="matrix(1,0,0,-1,212.2006,526.7587)"
           style="font-variant:normal;font-weight:normal;font-stretch:normal;font-size:8px;font-family:'Times New Roman PS MT';-inkscape-font-specification:TimesNewRomanPSMT;writing-mode:lr-tb;fill:#231f20;fill-opacity:1;fill-rule:nonzero;stroke:none"
           id="text620"><tspan
             x="0"
             y="0"
             id="tspan618">′</tspan></text><text
           transform="matrix(1,0,0,-1,278.0246,526.7587)"
           style="font-variant:normal;font-weight:normal;font-stretch:normal;font-size:7px;font-family:'Frutiger LT Std';-inkscape-font-specification:FrutigerLTStd-Roman;writing-mode:lr-tb;fill:#231f20;fill-opacity:1;fill-rule:nonzero;stroke:none"
           id="text624"><tspan
             x="0"
             y="0"
             id="tspan622">3</tspan></text><text
           transform="matrix(1,0,0,-1,281.9166,526.7587)"
           style="font-variant:normal;font-weight:normal;font-stretch:normal;font-size:8px;font-family:'Times New Roman PS MT';-inkscape-font-specification:TimesNewRomanPSMT;writing-mode:lr-tb;fill:#231f20;fill-opacity:1;fill-rule:nonzero;stroke:none"
           id="text628"><tspan
             x="0"
             y="0"
             id="tspan626">′</tspan></text></g></g></g></svg>
